<?xml version="1.0" encoding="utf-8" standalone="no"?>
<!DOCTYPE svg PUBLIC "-//W3C//DTD SVG 1.1//EN"
  "http://www.w3.org/Graphics/SVG/1.1/DTD/svg11.dtd">
<!-- Created with matplotlib (http://matplotlib.org/) -->
<svg height="720pt" version="1.1" viewBox="0 0 1080 720" width="1080pt" xmlns="http://www.w3.org/2000/svg" xmlns:xlink="http://www.w3.org/1999/xlink">
 <defs>
  <style type="text/css">
*{stroke-linecap:butt;stroke-linejoin:round;}
  </style>
 </defs>
 <g id="figure_1">
  <g id="patch_1">
   <path d="M 0 720 
L 1080 720 
L 1080 0 
L 0 0 
z
" style="fill:#ffffff;"/>
  </g>
  <g id="axes_1">
   <g id="patch_2">
    <path d="M 344.815 656.06 
L 1031.56 656.06 
L 1031.56 41.4525 
L 344.815 41.4525 
z
" style="fill:#ffffff;"/>
   </g>
   <g id="patch_3">
    <path clip-path="url(#p0bf7ad99fb)" d="M 344.815 44.013365 
L 802.645 44.013365 
L 802.645 64.500281 
L 344.815 64.500281 
z
" style="fill:#2020df;"/>
   </g>
   <g id="patch_4">
    <path clip-path="url(#p0bf7ad99fb)" d="M 344.815 69.62201 
L 688.1875 69.62201 
L 688.1875 90.108927 
L 344.815 90.108927 
z
" style="fill:#2020df;"/>
   </g>
   <g id="patch_5">
    <path clip-path="url(#p0bf7ad99fb)" d="M 344.815 95.230656 
L 669.11125 95.230656 
L 669.11125 115.717573 
L 344.815 115.717573 
z
" style="fill:#2020df;"/>
   </g>
   <g id="patch_6">
    <path clip-path="url(#p0bf7ad99fb)" d="M 344.815 120.839302 
L 659.573125 120.839302 
L 659.573125 141.326219 
L 344.815 141.326219 
z
" style="fill:#2020df;"/>
   </g>
   <g id="patch_7">
    <path clip-path="url(#p0bf7ad99fb)" d="M 344.815 146.447948 
L 630.95875 146.447948 
L 630.95875 166.934865 
L 344.815 166.934865 
z
" style="fill:#2020df;"/>
   </g>
   <g id="patch_8">
    <path clip-path="url(#p0bf7ad99fb)" d="M 344.815 172.056594 
L 611.8825 172.056594 
L 611.8825 192.54351 
L 344.815 192.54351 
z
" style="fill:#2020df;"/>
   </g>
   <g id="patch_9">
    <path clip-path="url(#p0bf7ad99fb)" d="M 344.815 197.66524 
L 583.268125 197.66524 
L 583.268125 218.152156 
L 344.815 218.152156 
z
" style="fill:#2020df;"/>
   </g>
   <g id="patch_10">
    <path clip-path="url(#p0bf7ad99fb)" d="M 344.815 223.273885 
L 583.268125 223.273885 
L 583.268125 243.760802 
L 344.815 243.760802 
z
" style="fill:#2020df;"/>
   </g>
   <g id="patch_11">
    <path clip-path="url(#p0bf7ad99fb)" d="M 344.815 248.882531 
L 573.73 248.882531 
L 573.73 269.369448 
L 344.815 269.369448 
z
" style="fill:#2020df;"/>
   </g>
   <g id="patch_12">
    <path clip-path="url(#p0bf7ad99fb)" d="M 344.815 274.491177 
L 573.73 274.491177 
L 573.73 294.978094 
L 344.815 294.978094 
z
" style="fill:#2020df;"/>
   </g>
   <g id="patch_13">
    <path clip-path="url(#p0bf7ad99fb)" d="M 344.815 300.099823 
L 554.65375 300.099823 
L 554.65375 320.58674 
L 344.815 320.58674 
z
" style="fill:#2020df;"/>
   </g>
   <g id="patch_14">
    <path clip-path="url(#p0bf7ad99fb)" d="M 344.815 325.708469 
L 545.115625 325.708469 
L 545.115625 346.195385 
L 344.815 346.195385 
z
" style="fill:#2020df;"/>
   </g>
   <g id="patch_15">
    <path clip-path="url(#p0bf7ad99fb)" d="M 344.815 351.317115 
L 545.115625 351.317115 
L 545.115625 371.804031 
L 344.815 371.804031 
z
" style="fill:#2020df;"/>
   </g>
   <g id="patch_16">
    <path clip-path="url(#p0bf7ad99fb)" d="M 344.815 376.92576 
L 506.963125 376.92576 
L 506.963125 397.412677 
L 344.815 397.412677 
z
" style="fill:#2020df;"/>
   </g>
   <g id="patch_17">
    <path clip-path="url(#p0bf7ad99fb)" d="M 344.815 402.534406 
L 487.886875 402.534406 
L 487.886875 423.021323 
L 344.815 423.021323 
z
" style="fill:#2020df;"/>
   </g>
   <g id="patch_18">
    <path clip-path="url(#p0bf7ad99fb)" d="M 344.815 428.143052 
L 468.810625 428.143052 
L 468.810625 448.629969 
L 344.815 448.629969 
z
" style="fill:#2020df;"/>
   </g>
   <g id="patch_19">
    <path clip-path="url(#p0bf7ad99fb)" d="M 344.815 453.751698 
L 459.2725 453.751698 
L 459.2725 474.238615 
L 344.815 474.238615 
z
" style="fill:#2020df;"/>
   </g>
   <g id="patch_20">
    <path clip-path="url(#p0bf7ad99fb)" d="M 344.815 479.360344 
L 459.2725 479.360344 
L 459.2725 499.84726 
L 344.815 499.84726 
z
" style="fill:#2020df;"/>
   </g>
   <g id="patch_21">
    <path clip-path="url(#p0bf7ad99fb)" d="M 344.815 504.96899 
L 449.734375 504.96899 
L 449.734375 525.455906 
L 344.815 525.455906 
z
" style="fill:#2020df;"/>
   </g>
   <g id="patch_22">
    <path clip-path="url(#p0bf7ad99fb)" d="M 344.815 530.577635 
L 440.19625 530.577635 
L 440.19625 551.064552 
L 344.815 551.064552 
z
" style="fill:#2020df;"/>
   </g>
   <g id="patch_23">
    <path clip-path="url(#p0bf7ad99fb)" d="M 344.815 556.186281 
L 421.12 556.186281 
L 421.12 576.673198 
L 344.815 576.673198 
z
" style="fill:#2020df;"/>
   </g>
   <g id="patch_24">
    <path clip-path="url(#p0bf7ad99fb)" d="M 344.815 581.794927 
L 402.04375 581.794927 
L 402.04375 602.281844 
L 344.815 602.281844 
z
" style="fill:#2020df;"/>
   </g>
   <g id="patch_25">
    <path clip-path="url(#p0bf7ad99fb)" d="M 344.815 607.403573 
L 402.04375 607.403573 
L 402.04375 627.89049 
L 344.815 627.89049 
z
" style="fill:#2020df;"/>
   </g>
   <g id="patch_26">
    <path clip-path="url(#p0bf7ad99fb)" d="M 344.815 633.012219 
L 344.815 633.012219 
L 344.815 653.499135 
L 344.815 653.499135 
z
" style="fill:#2020df;"/>
   </g>
   <g id="matplotlib.axis_1">
    <g id="xtick_1">
     <g id="line2d_1">
      <defs>
       <path d="M 0 0 
L 0 3.5 
" id="m56dcfe9241" style="stroke:#000000;"/>
      </defs>
      <g>
       <use style="stroke:#000000;" x="344.815" xlink:href="#m56dcfe9241" y="656.06"/>
      </g>
     </g>
     <g id="text_1">
      <!-- 0 -->
      <defs>
       <path d="M 31.78125 66.40625 
Q 24.171875 66.40625 20.328125 58.90625 
Q 16.5 51.421875 16.5 36.375 
Q 16.5 21.390625 20.328125 13.890625 
Q 24.171875 6.390625 31.78125 6.390625 
Q 39.453125 6.390625 43.28125 13.890625 
Q 47.125 21.390625 47.125 36.375 
Q 47.125 51.421875 43.28125 58.90625 
Q 39.453125 66.40625 31.78125 66.40625 
z
M 31.78125 74.21875 
Q 44.046875 74.21875 50.515625 64.515625 
Q 56.984375 54.828125 56.984375 36.375 
Q 56.984375 17.96875 50.515625 8.265625 
Q 44.046875 -1.421875 31.78125 -1.421875 
Q 19.53125 -1.421875 13.0625 8.265625 
Q 6.59375 17.96875 6.59375 36.375 
Q 6.59375 54.828125 13.0625 64.515625 
Q 19.53125 74.21875 31.78125 74.21875 
z
" id="DejaVuSans-30"/>
      </defs>
      <g transform="translate(340.043125 677.957656)scale(0.15 -0.15)">
       <use xlink:href="#DejaVuSans-30"/>
      </g>
     </g>
    </g>
    <g id="xtick_2">
     <g id="line2d_2">
      <g>
       <use style="stroke:#000000;" x="440.19625" xlink:href="#m56dcfe9241" y="656.06"/>
      </g>
     </g>
     <g id="text_2">
      <!-- 10 -->
      <defs>
       <path d="M 12.40625 8.296875 
L 28.515625 8.296875 
L 28.515625 63.921875 
L 10.984375 60.40625 
L 10.984375 69.390625 
L 28.421875 72.90625 
L 38.28125 72.90625 
L 38.28125 8.296875 
L 54.390625 8.296875 
L 54.390625 0 
L 12.40625 0 
z
" id="DejaVuSans-31"/>
      </defs>
      <g transform="translate(430.6525 677.957656)scale(0.15 -0.15)">
       <use xlink:href="#DejaVuSans-31"/>
       <use x="63.623047" xlink:href="#DejaVuSans-30"/>
      </g>
     </g>
    </g>
    <g id="xtick_3">
     <g id="line2d_3">
      <g>
       <use style="stroke:#000000;" x="535.5775" xlink:href="#m56dcfe9241" y="656.06"/>
      </g>
     </g>
     <g id="text_3">
      <!-- 20 -->
      <defs>
       <path d="M 19.1875 8.296875 
L 53.609375 8.296875 
L 53.609375 0 
L 7.328125 0 
L 7.328125 8.296875 
Q 12.9375 14.109375 22.625 23.890625 
Q 32.328125 33.6875 34.8125 36.53125 
Q 39.546875 41.84375 41.421875 45.53125 
Q 43.3125 49.21875 43.3125 52.78125 
Q 43.3125 58.59375 39.234375 62.25 
Q 35.15625 65.921875 28.609375 65.921875 
Q 23.96875 65.921875 18.8125 64.3125 
Q 13.671875 62.703125 7.8125 59.421875 
L 7.8125 69.390625 
Q 13.765625 71.78125 18.9375 73 
Q 24.125 74.21875 28.421875 74.21875 
Q 39.75 74.21875 46.484375 68.546875 
Q 53.21875 62.890625 53.21875 53.421875 
Q 53.21875 48.921875 51.53125 44.890625 
Q 49.859375 40.875 45.40625 35.40625 
Q 44.1875 33.984375 37.640625 27.21875 
Q 31.109375 20.453125 19.1875 8.296875 
z
" id="DejaVuSans-32"/>
      </defs>
      <g transform="translate(526.03375 677.957656)scale(0.15 -0.15)">
       <use xlink:href="#DejaVuSans-32"/>
       <use x="63.623047" xlink:href="#DejaVuSans-30"/>
      </g>
     </g>
    </g>
    <g id="xtick_4">
     <g id="line2d_4">
      <g>
       <use style="stroke:#000000;" x="630.95875" xlink:href="#m56dcfe9241" y="656.06"/>
      </g>
     </g>
     <g id="text_4">
      <!-- 30 -->
      <defs>
       <path d="M 40.578125 39.3125 
Q 47.65625 37.796875 51.625 33 
Q 55.609375 28.21875 55.609375 21.1875 
Q 55.609375 10.40625 48.1875 4.484375 
Q 40.765625 -1.421875 27.09375 -1.421875 
Q 22.515625 -1.421875 17.65625 -0.515625 
Q 12.796875 0.390625 7.625 2.203125 
L 7.625 11.71875 
Q 11.71875 9.328125 16.59375 8.109375 
Q 21.484375 6.890625 26.8125 6.890625 
Q 36.078125 6.890625 40.9375 10.546875 
Q 45.796875 14.203125 45.796875 21.1875 
Q 45.796875 27.640625 41.28125 31.265625 
Q 36.765625 34.90625 28.71875 34.90625 
L 20.21875 34.90625 
L 20.21875 43.015625 
L 29.109375 43.015625 
Q 36.375 43.015625 40.234375 45.921875 
Q 44.09375 48.828125 44.09375 54.296875 
Q 44.09375 59.90625 40.109375 62.90625 
Q 36.140625 65.921875 28.71875 65.921875 
Q 24.65625 65.921875 20.015625 65.03125 
Q 15.375 64.15625 9.8125 62.3125 
L 9.8125 71.09375 
Q 15.4375 72.65625 20.34375 73.4375 
Q 25.25 74.21875 29.59375 74.21875 
Q 40.828125 74.21875 47.359375 69.109375 
Q 53.90625 64.015625 53.90625 55.328125 
Q 53.90625 49.265625 50.4375 45.09375 
Q 46.96875 40.921875 40.578125 39.3125 
z
" id="DejaVuSans-33"/>
      </defs>
      <g transform="translate(621.415 677.957656)scale(0.15 -0.15)">
       <use xlink:href="#DejaVuSans-33"/>
       <use x="63.623047" xlink:href="#DejaVuSans-30"/>
      </g>
     </g>
    </g>
    <g id="xtick_5">
     <g id="line2d_5">
      <g>
       <use style="stroke:#000000;" x="726.34" xlink:href="#m56dcfe9241" y="656.06"/>
      </g>
     </g>
     <g id="text_5">
      <!-- 40 -->
      <defs>
       <path d="M 37.796875 64.3125 
L 12.890625 25.390625 
L 37.796875 25.390625 
z
M 35.203125 72.90625 
L 47.609375 72.90625 
L 47.609375 25.390625 
L 58.015625 25.390625 
L 58.015625 17.1875 
L 47.609375 17.1875 
L 47.609375 0 
L 37.796875 0 
L 37.796875 17.1875 
L 4.890625 17.1875 
L 4.890625 26.703125 
z
" id="DejaVuSans-34"/>
      </defs>
      <g transform="translate(716.79625 677.957656)scale(0.15 -0.15)">
       <use xlink:href="#DejaVuSans-34"/>
       <use x="63.623047" xlink:href="#DejaVuSans-30"/>
      </g>
     </g>
    </g>
    <g id="xtick_6">
     <g id="line2d_6">
      <g>
       <use style="stroke:#000000;" x="821.72125" xlink:href="#m56dcfe9241" y="656.06"/>
      </g>
     </g>
     <g id="text_6">
      <!-- 50 -->
      <defs>
       <path d="M 10.796875 72.90625 
L 49.515625 72.90625 
L 49.515625 64.59375 
L 19.828125 64.59375 
L 19.828125 46.734375 
Q 21.96875 47.46875 24.109375 47.828125 
Q 26.265625 48.1875 28.421875 48.1875 
Q 40.625 48.1875 47.75 41.5 
Q 54.890625 34.8125 54.890625 23.390625 
Q 54.890625 11.625 47.5625 5.09375 
Q 40.234375 -1.421875 26.90625 -1.421875 
Q 22.3125 -1.421875 17.546875 -0.640625 
Q 12.796875 0.140625 7.71875 1.703125 
L 7.71875 11.625 
Q 12.109375 9.234375 16.796875 8.0625 
Q 21.484375 6.890625 26.703125 6.890625 
Q 35.15625 6.890625 40.078125 11.328125 
Q 45.015625 15.765625 45.015625 23.390625 
Q 45.015625 31 40.078125 35.4375 
Q 35.15625 39.890625 26.703125 39.890625 
Q 22.75 39.890625 18.8125 39.015625 
Q 14.890625 38.140625 10.796875 36.28125 
z
" id="DejaVuSans-35"/>
      </defs>
      <g transform="translate(812.1775 677.957656)scale(0.15 -0.15)">
       <use xlink:href="#DejaVuSans-35"/>
       <use x="63.623047" xlink:href="#DejaVuSans-30"/>
      </g>
     </g>
    </g>
    <g id="xtick_7">
     <g id="line2d_7">
      <g>
       <use style="stroke:#000000;" x="917.1025" xlink:href="#m56dcfe9241" y="656.06"/>
      </g>
     </g>
     <g id="text_7">
      <!-- 60 -->
      <defs>
       <path d="M 33.015625 40.375 
Q 26.375 40.375 22.484375 35.828125 
Q 18.609375 31.296875 18.609375 23.390625 
Q 18.609375 15.53125 22.484375 10.953125 
Q 26.375 6.390625 33.015625 6.390625 
Q 39.65625 6.390625 43.53125 10.953125 
Q 47.40625 15.53125 47.40625 23.390625 
Q 47.40625 31.296875 43.53125 35.828125 
Q 39.65625 40.375 33.015625 40.375 
z
M 52.59375 71.296875 
L 52.59375 62.3125 
Q 48.875 64.0625 45.09375 64.984375 
Q 41.3125 65.921875 37.59375 65.921875 
Q 27.828125 65.921875 22.671875 59.328125 
Q 17.53125 52.734375 16.796875 39.40625 
Q 19.671875 43.65625 24.015625 45.921875 
Q 28.375 48.1875 33.59375 48.1875 
Q 44.578125 48.1875 50.953125 41.515625 
Q 57.328125 34.859375 57.328125 23.390625 
Q 57.328125 12.15625 50.6875 5.359375 
Q 44.046875 -1.421875 33.015625 -1.421875 
Q 20.359375 -1.421875 13.671875 8.265625 
Q 6.984375 17.96875 6.984375 36.375 
Q 6.984375 53.65625 15.1875 63.9375 
Q 23.390625 74.21875 37.203125 74.21875 
Q 40.921875 74.21875 44.703125 73.484375 
Q 48.484375 72.75 52.59375 71.296875 
z
" id="DejaVuSans-36"/>
      </defs>
      <g transform="translate(907.55875 677.957656)scale(0.15 -0.15)">
       <use xlink:href="#DejaVuSans-36"/>
       <use x="63.623047" xlink:href="#DejaVuSans-30"/>
      </g>
     </g>
    </g>
    <g id="xtick_8">
     <g id="line2d_8">
      <g>
       <use style="stroke:#000000;" x="1012.48375" xlink:href="#m56dcfe9241" y="656.06"/>
      </g>
     </g>
     <g id="text_8">
      <!-- 70 -->
      <defs>
       <path d="M 8.203125 72.90625 
L 55.078125 72.90625 
L 55.078125 68.703125 
L 28.609375 0 
L 18.3125 0 
L 43.21875 64.59375 
L 8.203125 64.59375 
z
" id="DejaVuSans-37"/>
      </defs>
      <g transform="translate(1002.94 677.957656)scale(0.15 -0.15)">
       <use xlink:href="#DejaVuSans-37"/>
       <use x="63.623047" xlink:href="#DejaVuSans-30"/>
      </g>
     </g>
    </g>
    <g id="text_9">
     <!-- Count -->
     <defs>
      <path d="M 64.40625 67.28125 
L 64.40625 56.890625 
Q 59.421875 61.53125 53.78125 63.8125 
Q 48.140625 66.109375 41.796875 66.109375 
Q 29.296875 66.109375 22.65625 58.46875 
Q 16.015625 50.828125 16.015625 36.375 
Q 16.015625 21.96875 22.65625 14.328125 
Q 29.296875 6.6875 41.796875 6.6875 
Q 48.140625 6.6875 53.78125 8.984375 
Q 59.421875 11.28125 64.40625 15.921875 
L 64.40625 5.609375 
Q 59.234375 2.09375 53.4375 0.328125 
Q 47.65625 -1.421875 41.21875 -1.421875 
Q 24.65625 -1.421875 15.125 8.703125 
Q 5.609375 18.84375 5.609375 36.375 
Q 5.609375 53.953125 15.125 64.078125 
Q 24.65625 74.21875 41.21875 74.21875 
Q 47.75 74.21875 53.53125 72.484375 
Q 59.328125 70.75 64.40625 67.28125 
z
" id="DejaVuSans-43"/>
      <path d="M 30.609375 48.390625 
Q 23.390625 48.390625 19.1875 42.75 
Q 14.984375 37.109375 14.984375 27.296875 
Q 14.984375 17.484375 19.15625 11.84375 
Q 23.34375 6.203125 30.609375 6.203125 
Q 37.796875 6.203125 41.984375 11.859375 
Q 46.1875 17.53125 46.1875 27.296875 
Q 46.1875 37.015625 41.984375 42.703125 
Q 37.796875 48.390625 30.609375 48.390625 
z
M 30.609375 56 
Q 42.328125 56 49.015625 48.375 
Q 55.71875 40.765625 55.71875 27.296875 
Q 55.71875 13.875 49.015625 6.21875 
Q 42.328125 -1.421875 30.609375 -1.421875 
Q 18.84375 -1.421875 12.171875 6.21875 
Q 5.515625 13.875 5.515625 27.296875 
Q 5.515625 40.765625 12.171875 48.375 
Q 18.84375 56 30.609375 56 
z
" id="DejaVuSans-6f"/>
      <path d="M 8.5 21.578125 
L 8.5 54.6875 
L 17.484375 54.6875 
L 17.484375 21.921875 
Q 17.484375 14.15625 20.5 10.265625 
Q 23.53125 6.390625 29.59375 6.390625 
Q 36.859375 6.390625 41.078125 11.03125 
Q 45.3125 15.671875 45.3125 23.6875 
L 45.3125 54.6875 
L 54.296875 54.6875 
L 54.296875 0 
L 45.3125 0 
L 45.3125 8.40625 
Q 42.046875 3.421875 37.71875 1 
Q 33.40625 -1.421875 27.6875 -1.421875 
Q 18.265625 -1.421875 13.375 4.4375 
Q 8.5 10.296875 8.5 21.578125 
z
M 31.109375 56 
z
" id="DejaVuSans-75"/>
      <path d="M 54.890625 33.015625 
L 54.890625 0 
L 45.90625 0 
L 45.90625 32.71875 
Q 45.90625 40.484375 42.875 44.328125 
Q 39.84375 48.1875 33.796875 48.1875 
Q 26.515625 48.1875 22.3125 43.546875 
Q 18.109375 38.921875 18.109375 30.90625 
L 18.109375 0 
L 9.078125 0 
L 9.078125 54.6875 
L 18.109375 54.6875 
L 18.109375 46.1875 
Q 21.34375 51.125 25.703125 53.5625 
Q 30.078125 56 35.796875 56 
Q 45.21875 56 50.046875 50.171875 
Q 54.890625 44.34375 54.890625 33.015625 
z
" id="DejaVuSans-6e"/>
      <path d="M 18.3125 70.21875 
L 18.3125 54.6875 
L 36.8125 54.6875 
L 36.8125 47.703125 
L 18.3125 47.703125 
L 18.3125 18.015625 
Q 18.3125 11.328125 20.140625 9.421875 
Q 21.96875 7.515625 27.59375 7.515625 
L 36.8125 7.515625 
L 36.8125 0 
L 27.59375 0 
Q 17.1875 0 13.234375 3.875 
Q 9.28125 7.765625 9.28125 18.015625 
L 9.28125 47.703125 
L 2.6875 47.703125 
L 2.6875 54.6875 
L 9.28125 54.6875 
L 9.28125 70.21875 
z
" id="DejaVuSans-74"/>
     </defs>
     <g transform="translate(663.687578 697.614609)scale(0.165 -0.165)">
      <use xlink:href="#DejaVuSans-43"/>
      <use x="69.824219" xlink:href="#DejaVuSans-6f"/>
      <use x="131.005859" xlink:href="#DejaVuSans-75"/>
      <use x="194.384766" xlink:href="#DejaVuSans-6e"/>
      <use x="257.763672" xlink:href="#DejaVuSans-74"/>
     </g>
    </g>
   </g>
   <g id="matplotlib.axis_2">
    <g id="ytick_1">
     <g id="line2d_9">
      <defs>
       <path d="M 0 0 
L -3.5 0 
" id="mad23810b22" style="stroke:#000000;"/>
      </defs>
      <g>
       <use style="stroke:#000000;" x="344.815" xlink:href="#mad23810b22" y="54.256823"/>
      </g>
     </g>
     <g id="text_10">
      <!-- Leadership -->
      <defs>
       <path d="M 9.8125 72.90625 
L 19.671875 72.90625 
L 19.671875 8.296875 
L 55.171875 8.296875 
L 55.171875 0 
L 9.8125 0 
z
" id="DejaVuSans-4c"/>
       <path d="M 56.203125 29.59375 
L 56.203125 25.203125 
L 14.890625 25.203125 
Q 15.484375 15.921875 20.484375 11.0625 
Q 25.484375 6.203125 34.421875 6.203125 
Q 39.59375 6.203125 44.453125 7.46875 
Q 49.3125 8.734375 54.109375 11.28125 
L 54.109375 2.78125 
Q 49.265625 0.734375 44.1875 -0.34375 
Q 39.109375 -1.421875 33.890625 -1.421875 
Q 20.796875 -1.421875 13.15625 6.1875 
Q 5.515625 13.8125 5.515625 26.8125 
Q 5.515625 40.234375 12.765625 48.109375 
Q 20.015625 56 32.328125 56 
Q 43.359375 56 49.78125 48.890625 
Q 56.203125 41.796875 56.203125 29.59375 
z
M 47.21875 32.234375 
Q 47.125 39.59375 43.09375 43.984375 
Q 39.0625 48.390625 32.421875 48.390625 
Q 24.90625 48.390625 20.390625 44.140625 
Q 15.875 39.890625 15.1875 32.171875 
z
" id="DejaVuSans-65"/>
       <path d="M 34.28125 27.484375 
Q 23.390625 27.484375 19.1875 25 
Q 14.984375 22.515625 14.984375 16.5 
Q 14.984375 11.71875 18.140625 8.90625 
Q 21.296875 6.109375 26.703125 6.109375 
Q 34.1875 6.109375 38.703125 11.40625 
Q 43.21875 16.703125 43.21875 25.484375 
L 43.21875 27.484375 
z
M 52.203125 31.203125 
L 52.203125 0 
L 43.21875 0 
L 43.21875 8.296875 
Q 40.140625 3.328125 35.546875 0.953125 
Q 30.953125 -1.421875 24.3125 -1.421875 
Q 15.921875 -1.421875 10.953125 3.296875 
Q 6 8.015625 6 15.921875 
Q 6 25.140625 12.171875 29.828125 
Q 18.359375 34.515625 30.609375 34.515625 
L 43.21875 34.515625 
L 43.21875 35.40625 
Q 43.21875 41.609375 39.140625 45 
Q 35.0625 48.390625 27.6875 48.390625 
Q 23 48.390625 18.546875 47.265625 
Q 14.109375 46.140625 10.015625 43.890625 
L 10.015625 52.203125 
Q 14.9375 54.109375 19.578125 55.046875 
Q 24.21875 56 28.609375 56 
Q 40.484375 56 46.34375 49.84375 
Q 52.203125 43.703125 52.203125 31.203125 
z
" id="DejaVuSans-61"/>
       <path d="M 45.40625 46.390625 
L 45.40625 75.984375 
L 54.390625 75.984375 
L 54.390625 0 
L 45.40625 0 
L 45.40625 8.203125 
Q 42.578125 3.328125 38.25 0.953125 
Q 33.9375 -1.421875 27.875 -1.421875 
Q 17.96875 -1.421875 11.734375 6.484375 
Q 5.515625 14.40625 5.515625 27.296875 
Q 5.515625 40.1875 11.734375 48.09375 
Q 17.96875 56 27.875 56 
Q 33.9375 56 38.25 53.625 
Q 42.578125 51.265625 45.40625 46.390625 
z
M 14.796875 27.296875 
Q 14.796875 17.390625 18.875 11.75 
Q 22.953125 6.109375 30.078125 6.109375 
Q 37.203125 6.109375 41.296875 11.75 
Q 45.40625 17.390625 45.40625 27.296875 
Q 45.40625 37.203125 41.296875 42.84375 
Q 37.203125 48.484375 30.078125 48.484375 
Q 22.953125 48.484375 18.875 42.84375 
Q 14.796875 37.203125 14.796875 27.296875 
z
" id="DejaVuSans-64"/>
       <path d="M 41.109375 46.296875 
Q 39.59375 47.171875 37.8125 47.578125 
Q 36.03125 48 33.890625 48 
Q 26.265625 48 22.1875 43.046875 
Q 18.109375 38.09375 18.109375 28.8125 
L 18.109375 0 
L 9.078125 0 
L 9.078125 54.6875 
L 18.109375 54.6875 
L 18.109375 46.1875 
Q 20.953125 51.171875 25.484375 53.578125 
Q 30.03125 56 36.53125 56 
Q 37.453125 56 38.578125 55.875 
Q 39.703125 55.765625 41.0625 55.515625 
z
" id="DejaVuSans-72"/>
       <path d="M 44.28125 53.078125 
L 44.28125 44.578125 
Q 40.484375 46.53125 36.375 47.5 
Q 32.28125 48.484375 27.875 48.484375 
Q 21.1875 48.484375 17.84375 46.4375 
Q 14.5 44.390625 14.5 40.28125 
Q 14.5 37.15625 16.890625 35.375 
Q 19.28125 33.59375 26.515625 31.984375 
L 29.59375 31.296875 
Q 39.15625 29.25 43.1875 25.515625 
Q 47.21875 21.78125 47.21875 15.09375 
Q 47.21875 7.46875 41.1875 3.015625 
Q 35.15625 -1.421875 24.609375 -1.421875 
Q 20.21875 -1.421875 15.453125 -0.5625 
Q 10.6875 0.296875 5.421875 2 
L 5.421875 11.28125 
Q 10.40625 8.6875 15.234375 7.390625 
Q 20.0625 6.109375 24.8125 6.109375 
Q 31.15625 6.109375 34.5625 8.28125 
Q 37.984375 10.453125 37.984375 14.40625 
Q 37.984375 18.0625 35.515625 20.015625 
Q 33.0625 21.96875 24.703125 23.78125 
L 21.578125 24.515625 
Q 13.234375 26.265625 9.515625 29.90625 
Q 5.8125 33.546875 5.8125 39.890625 
Q 5.8125 47.609375 11.28125 51.796875 
Q 16.75 56 26.8125 56 
Q 31.78125 56 36.171875 55.265625 
Q 40.578125 54.546875 44.28125 53.078125 
z
" id="DejaVuSans-73"/>
       <path d="M 54.890625 33.015625 
L 54.890625 0 
L 45.90625 0 
L 45.90625 32.71875 
Q 45.90625 40.484375 42.875 44.328125 
Q 39.84375 48.1875 33.796875 48.1875 
Q 26.515625 48.1875 22.3125 43.546875 
Q 18.109375 38.921875 18.109375 30.90625 
L 18.109375 0 
L 9.078125 0 
L 9.078125 75.984375 
L 18.109375 75.984375 
L 18.109375 46.1875 
Q 21.34375 51.125 25.703125 53.5625 
Q 30.078125 56 35.796875 56 
Q 45.21875 56 50.046875 50.171875 
Q 54.890625 44.34375 54.890625 33.015625 
z
" id="DejaVuSans-68"/>
       <path d="M 9.421875 54.6875 
L 18.40625 54.6875 
L 18.40625 0 
L 9.421875 0 
z
M 9.421875 75.984375 
L 18.40625 75.984375 
L 18.40625 64.59375 
L 9.421875 64.59375 
z
" id="DejaVuSans-69"/>
       <path d="M 18.109375 8.203125 
L 18.109375 -20.796875 
L 9.078125 -20.796875 
L 9.078125 54.6875 
L 18.109375 54.6875 
L 18.109375 46.390625 
Q 20.953125 51.265625 25.265625 53.625 
Q 29.59375 56 35.59375 56 
Q 45.5625 56 51.78125 48.09375 
Q 58.015625 40.1875 58.015625 27.296875 
Q 58.015625 14.40625 51.78125 6.484375 
Q 45.5625 -1.421875 35.59375 -1.421875 
Q 29.59375 -1.421875 25.265625 0.953125 
Q 20.953125 3.328125 18.109375 8.203125 
z
M 48.6875 27.296875 
Q 48.6875 37.203125 44.609375 42.84375 
Q 40.53125 48.484375 33.40625 48.484375 
Q 26.265625 48.484375 22.1875 42.84375 
Q 18.109375 37.203125 18.109375 27.296875 
Q 18.109375 17.390625 22.1875 11.75 
Q 26.265625 6.109375 33.40625 6.109375 
Q 40.53125 6.109375 44.609375 11.75 
Q 48.6875 17.390625 48.6875 27.296875 
z
" id="DejaVuSans-70"/>
      </defs>
      <g transform="translate(251.60875 59.955651)scale(0.15 -0.15)">
       <use xlink:href="#DejaVuSans-4c"/>
       <use x="55.697266" xlink:href="#DejaVuSans-65"/>
       <use x="117.220703" xlink:href="#DejaVuSans-61"/>
       <use x="178.5" xlink:href="#DejaVuSans-64"/>
       <use x="241.976562" xlink:href="#DejaVuSans-65"/>
       <use x="303.5" xlink:href="#DejaVuSans-72"/>
       <use x="344.613281" xlink:href="#DejaVuSans-73"/>
       <use x="396.712891" xlink:href="#DejaVuSans-68"/>
       <use x="460.091797" xlink:href="#DejaVuSans-69"/>
       <use x="487.875" xlink:href="#DejaVuSans-70"/>
      </g>
     </g>
    </g>
    <g id="ytick_2">
     <g id="line2d_10">
      <g>
       <use style="stroke:#000000;" x="344.815" xlink:href="#mad23810b22" y="79.865469"/>
      </g>
     </g>
     <g id="text_11">
      <!-- Facilitation -->
      <defs>
       <path d="M 9.8125 72.90625 
L 51.703125 72.90625 
L 51.703125 64.59375 
L 19.671875 64.59375 
L 19.671875 43.109375 
L 48.578125 43.109375 
L 48.578125 34.8125 
L 19.671875 34.8125 
L 19.671875 0 
L 9.8125 0 
z
" id="DejaVuSans-46"/>
       <path d="M 48.78125 52.59375 
L 48.78125 44.1875 
Q 44.96875 46.296875 41.140625 47.34375 
Q 37.3125 48.390625 33.40625 48.390625 
Q 24.65625 48.390625 19.8125 42.84375 
Q 14.984375 37.3125 14.984375 27.296875 
Q 14.984375 17.28125 19.8125 11.734375 
Q 24.65625 6.203125 33.40625 6.203125 
Q 37.3125 6.203125 41.140625 7.25 
Q 44.96875 8.296875 48.78125 10.40625 
L 48.78125 2.09375 
Q 45.015625 0.34375 40.984375 -0.53125 
Q 36.96875 -1.421875 32.421875 -1.421875 
Q 20.0625 -1.421875 12.78125 6.34375 
Q 5.515625 14.109375 5.515625 27.296875 
Q 5.515625 40.671875 12.859375 48.328125 
Q 20.21875 56 33.015625 56 
Q 37.15625 56 41.109375 55.140625 
Q 45.0625 54.296875 48.78125 52.59375 
z
" id="DejaVuSans-63"/>
       <path d="M 9.421875 75.984375 
L 18.40625 75.984375 
L 18.40625 0 
L 9.421875 0 
z
" id="DejaVuSans-6c"/>
      </defs>
      <g transform="translate(251.962656 85.564297)scale(0.15 -0.15)">
       <use xlink:href="#DejaVuSans-46"/>
       <use x="57.378906" xlink:href="#DejaVuSans-61"/>
       <use x="118.658203" xlink:href="#DejaVuSans-63"/>
       <use x="173.638672" xlink:href="#DejaVuSans-69"/>
       <use x="201.421875" xlink:href="#DejaVuSans-6c"/>
       <use x="229.205078" xlink:href="#DejaVuSans-69"/>
       <use x="256.988281" xlink:href="#DejaVuSans-74"/>
       <use x="296.197266" xlink:href="#DejaVuSans-61"/>
       <use x="357.476562" xlink:href="#DejaVuSans-74"/>
       <use x="396.685547" xlink:href="#DejaVuSans-69"/>
       <use x="424.46875" xlink:href="#DejaVuSans-6f"/>
       <use x="485.650391" xlink:href="#DejaVuSans-6e"/>
      </g>
     </g>
    </g>
    <g id="ytick_3">
     <g id="line2d_11">
      <g>
       <use style="stroke:#000000;" x="344.815" xlink:href="#mad23810b22" y="105.474115"/>
      </g>
     </g>
     <g id="text_12">
      <!-- Play -->
      <defs>
       <path d="M 19.671875 64.796875 
L 19.671875 37.40625 
L 32.078125 37.40625 
Q 38.96875 37.40625 42.71875 40.96875 
Q 46.484375 44.53125 46.484375 51.125 
Q 46.484375 57.671875 42.71875 61.234375 
Q 38.96875 64.796875 32.078125 64.796875 
z
M 9.8125 72.90625 
L 32.078125 72.90625 
Q 44.34375 72.90625 50.609375 67.359375 
Q 56.890625 61.8125 56.890625 51.125 
Q 56.890625 40.328125 50.609375 34.8125 
Q 44.34375 29.296875 32.078125 29.296875 
L 19.671875 29.296875 
L 19.671875 0 
L 9.8125 0 
z
" id="DejaVuSans-50"/>
       <path d="M 32.171875 -5.078125 
Q 28.375 -14.84375 24.75 -17.8125 
Q 21.140625 -20.796875 15.09375 -20.796875 
L 7.90625 -20.796875 
L 7.90625 -13.28125 
L 13.1875 -13.28125 
Q 16.890625 -13.28125 18.9375 -11.515625 
Q 21 -9.765625 23.484375 -3.21875 
L 25.09375 0.875 
L 2.984375 54.6875 
L 12.5 54.6875 
L 29.59375 11.921875 
L 46.6875 54.6875 
L 56.203125 54.6875 
z
" id="DejaVuSans-79"/>
      </defs>
      <g transform="translate(303.032969 111.172943)scale(0.15 -0.15)">
       <use xlink:href="#DejaVuSans-50"/>
       <use x="60.302734" xlink:href="#DejaVuSans-6c"/>
       <use x="88.085938" xlink:href="#DejaVuSans-61"/>
       <use x="149.365234" xlink:href="#DejaVuSans-79"/>
      </g>
     </g>
    </g>
    <g id="ytick_4">
     <g id="line2d_12">
      <g>
       <use style="stroke:#000000;" x="344.815" xlink:href="#mad23810b22" y="131.08276"/>
      </g>
     </g>
     <g id="text_13">
      <!-- Risk tolerance -->
      <defs>
       <path d="M 44.390625 34.1875 
Q 47.5625 33.109375 50.5625 29.59375 
Q 53.5625 26.078125 56.59375 19.921875 
L 66.609375 0 
L 56 0 
L 46.6875 18.703125 
Q 43.0625 26.03125 39.671875 28.421875 
Q 36.28125 30.8125 30.421875 30.8125 
L 19.671875 30.8125 
L 19.671875 0 
L 9.8125 0 
L 9.8125 72.90625 
L 32.078125 72.90625 
Q 44.578125 72.90625 50.734375 67.671875 
Q 56.890625 62.453125 56.890625 51.90625 
Q 56.890625 45.015625 53.6875 40.46875 
Q 50.484375 35.9375 44.390625 34.1875 
z
M 19.671875 64.796875 
L 19.671875 38.921875 
L 32.078125 38.921875 
Q 39.203125 38.921875 42.84375 42.21875 
Q 46.484375 45.515625 46.484375 51.90625 
Q 46.484375 58.296875 42.84375 61.546875 
Q 39.203125 64.796875 32.078125 64.796875 
z
" id="DejaVuSans-52"/>
       <path d="M 9.078125 75.984375 
L 18.109375 75.984375 
L 18.109375 31.109375 
L 44.921875 54.6875 
L 56.390625 54.6875 
L 27.390625 29.109375 
L 57.625 0 
L 45.90625 0 
L 18.109375 26.703125 
L 18.109375 0 
L 9.078125 0 
z
" id="DejaVuSans-6b"/>
       <path id="DejaVuSans-20"/>
      </defs>
      <g transform="translate(227.660313 136.781589)scale(0.15 -0.15)">
       <use xlink:href="#DejaVuSans-52"/>
       <use x="69.482422" xlink:href="#DejaVuSans-69"/>
       <use x="97.265625" xlink:href="#DejaVuSans-73"/>
       <use x="149.365234" xlink:href="#DejaVuSans-6b"/>
       <use x="207.275391" xlink:href="#DejaVuSans-20"/>
       <use x="239.0625" xlink:href="#DejaVuSans-74"/>
       <use x="278.271484" xlink:href="#DejaVuSans-6f"/>
       <use x="339.453125" xlink:href="#DejaVuSans-6c"/>
       <use x="367.236328" xlink:href="#DejaVuSans-65"/>
       <use x="428.759766" xlink:href="#DejaVuSans-72"/>
       <use x="469.873047" xlink:href="#DejaVuSans-61"/>
       <use x="531.152344" xlink:href="#DejaVuSans-6e"/>
       <use x="594.53125" xlink:href="#DejaVuSans-63"/>
       <use x="649.511719" xlink:href="#DejaVuSans-65"/>
      </g>
     </g>
    </g>
    <g id="ytick_5">
     <g id="line2d_13">
      <g>
       <use style="stroke:#000000;" x="344.815" xlink:href="#mad23810b22" y="156.691406"/>
      </g>
     </g>
     <g id="text_14">
      <!-- Data analysis -->
      <defs>
       <path d="M 19.671875 64.796875 
L 19.671875 8.109375 
L 31.59375 8.109375 
Q 46.6875 8.109375 53.6875 14.9375 
Q 60.6875 21.78125 60.6875 36.53125 
Q 60.6875 51.171875 53.6875 57.984375 
Q 46.6875 64.796875 31.59375 64.796875 
z
M 9.8125 72.90625 
L 30.078125 72.90625 
Q 51.265625 72.90625 61.171875 64.09375 
Q 71.09375 55.28125 71.09375 36.53125 
Q 71.09375 17.671875 61.125 8.828125 
Q 51.171875 0 30.078125 0 
L 9.8125 0 
z
" id="DejaVuSans-44"/>
      </defs>
      <g transform="translate(233.001719 162.390234)scale(0.15 -0.15)">
       <use xlink:href="#DejaVuSans-44"/>
       <use x="77.001953" xlink:href="#DejaVuSans-61"/>
       <use x="138.28125" xlink:href="#DejaVuSans-74"/>
       <use x="177.490234" xlink:href="#DejaVuSans-61"/>
       <use x="238.769531" xlink:href="#DejaVuSans-20"/>
       <use x="270.556641" xlink:href="#DejaVuSans-61"/>
       <use x="331.835938" xlink:href="#DejaVuSans-6e"/>
       <use x="395.214844" xlink:href="#DejaVuSans-61"/>
       <use x="456.494141" xlink:href="#DejaVuSans-6c"/>
       <use x="484.277344" xlink:href="#DejaVuSans-79"/>
       <use x="543.457031" xlink:href="#DejaVuSans-73"/>
       <use x="595.556641" xlink:href="#DejaVuSans-69"/>
       <use x="623.339844" xlink:href="#DejaVuSans-73"/>
      </g>
     </g>
    </g>
    <g id="ytick_6">
     <g id="line2d_14">
      <g>
       <use style="stroke:#000000;" x="344.815" xlink:href="#mad23810b22" y="182.300052"/>
      </g>
     </g>
     <g id="text_15">
      <!-- Algorithm and data model design -->
      <defs>
       <path d="M 34.1875 63.1875 
L 20.796875 26.90625 
L 47.609375 26.90625 
z
M 28.609375 72.90625 
L 39.796875 72.90625 
L 67.578125 0 
L 57.328125 0 
L 50.6875 18.703125 
L 17.828125 18.703125 
L 11.1875 0 
L 0.78125 0 
z
" id="DejaVuSans-41"/>
       <path d="M 45.40625 27.984375 
Q 45.40625 37.75 41.375 43.109375 
Q 37.359375 48.484375 30.078125 48.484375 
Q 22.859375 48.484375 18.828125 43.109375 
Q 14.796875 37.75 14.796875 27.984375 
Q 14.796875 18.265625 18.828125 12.890625 
Q 22.859375 7.515625 30.078125 7.515625 
Q 37.359375 7.515625 41.375 12.890625 
Q 45.40625 18.265625 45.40625 27.984375 
z
M 54.390625 6.78125 
Q 54.390625 -7.171875 48.1875 -13.984375 
Q 42 -20.796875 29.203125 -20.796875 
Q 24.46875 -20.796875 20.265625 -20.09375 
Q 16.0625 -19.390625 12.109375 -17.921875 
L 12.109375 -9.1875 
Q 16.0625 -11.328125 19.921875 -12.34375 
Q 23.78125 -13.375 27.78125 -13.375 
Q 36.625 -13.375 41.015625 -8.765625 
Q 45.40625 -4.15625 45.40625 5.171875 
L 45.40625 9.625 
Q 42.625 4.78125 38.28125 2.390625 
Q 33.9375 0 27.875 0 
Q 17.828125 0 11.671875 7.65625 
Q 5.515625 15.328125 5.515625 27.984375 
Q 5.515625 40.671875 11.671875 48.328125 
Q 17.828125 56 27.875 56 
Q 33.9375 56 38.28125 53.609375 
Q 42.625 51.21875 45.40625 46.390625 
L 45.40625 54.6875 
L 54.390625 54.6875 
z
" id="DejaVuSans-67"/>
       <path d="M 52 44.1875 
Q 55.375 50.25 60.0625 53.125 
Q 64.75 56 71.09375 56 
Q 79.640625 56 84.28125 50.015625 
Q 88.921875 44.046875 88.921875 33.015625 
L 88.921875 0 
L 79.890625 0 
L 79.890625 32.71875 
Q 79.890625 40.578125 77.09375 44.375 
Q 74.3125 48.1875 68.609375 48.1875 
Q 61.625 48.1875 57.5625 43.546875 
Q 53.515625 38.921875 53.515625 30.90625 
L 53.515625 0 
L 44.484375 0 
L 44.484375 32.71875 
Q 44.484375 40.625 41.703125 44.40625 
Q 38.921875 48.1875 33.109375 48.1875 
Q 26.21875 48.1875 22.15625 43.53125 
Q 18.109375 38.875 18.109375 30.90625 
L 18.109375 0 
L 9.078125 0 
L 9.078125 54.6875 
L 18.109375 54.6875 
L 18.109375 46.1875 
Q 21.1875 51.21875 25.484375 53.609375 
Q 29.78125 56 35.6875 56 
Q 41.65625 56 45.828125 52.96875 
Q 50 49.953125 52 44.1875 
z
" id="DejaVuSans-6d"/>
      </defs>
      <g transform="translate(83.306406 187.99888)scale(0.15 -0.15)">
       <use xlink:href="#DejaVuSans-41"/>
       <use x="68.408203" xlink:href="#DejaVuSans-6c"/>
       <use x="96.191406" xlink:href="#DejaVuSans-67"/>
       <use x="159.667969" xlink:href="#DejaVuSans-6f"/>
       <use x="220.849609" xlink:href="#DejaVuSans-72"/>
       <use x="261.962891" xlink:href="#DejaVuSans-69"/>
       <use x="289.746094" xlink:href="#DejaVuSans-74"/>
       <use x="328.955078" xlink:href="#DejaVuSans-68"/>
       <use x="392.333984" xlink:href="#DejaVuSans-6d"/>
       <use x="489.746094" xlink:href="#DejaVuSans-20"/>
       <use x="521.533203" xlink:href="#DejaVuSans-61"/>
       <use x="582.8125" xlink:href="#DejaVuSans-6e"/>
       <use x="646.191406" xlink:href="#DejaVuSans-64"/>
       <use x="709.667969" xlink:href="#DejaVuSans-20"/>
       <use x="741.455078" xlink:href="#DejaVuSans-64"/>
       <use x="804.931641" xlink:href="#DejaVuSans-61"/>
       <use x="866.210938" xlink:href="#DejaVuSans-74"/>
       <use x="905.419922" xlink:href="#DejaVuSans-61"/>
       <use x="966.699219" xlink:href="#DejaVuSans-20"/>
       <use x="998.486328" xlink:href="#DejaVuSans-6d"/>
       <use x="1095.898438" xlink:href="#DejaVuSans-6f"/>
       <use x="1157.080078" xlink:href="#DejaVuSans-64"/>
       <use x="1220.556641" xlink:href="#DejaVuSans-65"/>
       <use x="1282.080078" xlink:href="#DejaVuSans-6c"/>
       <use x="1309.863281" xlink:href="#DejaVuSans-20"/>
       <use x="1341.650391" xlink:href="#DejaVuSans-64"/>
       <use x="1405.126953" xlink:href="#DejaVuSans-65"/>
       <use x="1466.650391" xlink:href="#DejaVuSans-73"/>
       <use x="1518.75" xlink:href="#DejaVuSans-69"/>
       <use x="1546.533203" xlink:href="#DejaVuSans-67"/>
       <use x="1610.009766" xlink:href="#DejaVuSans-6e"/>
      </g>
     </g>
    </g>
    <g id="ytick_7">
     <g id="line2d_15">
      <g>
       <use style="stroke:#000000;" x="344.815" xlink:href="#mad23810b22" y="207.908698"/>
      </g>
     </g>
     <g id="text_16">
      <!-- Psychology and human behavior -->
      <defs>
       <path d="M 48.6875 27.296875 
Q 48.6875 37.203125 44.609375 42.84375 
Q 40.53125 48.484375 33.40625 48.484375 
Q 26.265625 48.484375 22.1875 42.84375 
Q 18.109375 37.203125 18.109375 27.296875 
Q 18.109375 17.390625 22.1875 11.75 
Q 26.265625 6.109375 33.40625 6.109375 
Q 40.53125 6.109375 44.609375 11.75 
Q 48.6875 17.390625 48.6875 27.296875 
z
M 18.109375 46.390625 
Q 20.953125 51.265625 25.265625 53.625 
Q 29.59375 56 35.59375 56 
Q 45.5625 56 51.78125 48.09375 
Q 58.015625 40.1875 58.015625 27.296875 
Q 58.015625 14.40625 51.78125 6.484375 
Q 45.5625 -1.421875 35.59375 -1.421875 
Q 29.59375 -1.421875 25.265625 0.953125 
Q 20.953125 3.328125 18.109375 8.203125 
L 18.109375 0 
L 9.078125 0 
L 9.078125 75.984375 
L 18.109375 75.984375 
z
" id="DejaVuSans-62"/>
       <path d="M 2.984375 54.6875 
L 12.5 54.6875 
L 29.59375 8.796875 
L 46.6875 54.6875 
L 56.203125 54.6875 
L 35.6875 0 
L 23.484375 0 
z
" id="DejaVuSans-76"/>
      </defs>
      <g transform="translate(89.217344 213.607526)scale(0.15 -0.15)">
       <use xlink:href="#DejaVuSans-50"/>
       <use x="60.287109" xlink:href="#DejaVuSans-73"/>
       <use x="112.386719" xlink:href="#DejaVuSans-79"/>
       <use x="171.566406" xlink:href="#DejaVuSans-63"/>
       <use x="226.546875" xlink:href="#DejaVuSans-68"/>
       <use x="289.925781" xlink:href="#DejaVuSans-6f"/>
       <use x="351.107422" xlink:href="#DejaVuSans-6c"/>
       <use x="378.890625" xlink:href="#DejaVuSans-6f"/>
       <use x="440.072266" xlink:href="#DejaVuSans-67"/>
       <use x="503.548828" xlink:href="#DejaVuSans-79"/>
       <use x="562.728516" xlink:href="#DejaVuSans-20"/>
       <use x="594.515625" xlink:href="#DejaVuSans-61"/>
       <use x="655.794922" xlink:href="#DejaVuSans-6e"/>
       <use x="719.173828" xlink:href="#DejaVuSans-64"/>
       <use x="782.650391" xlink:href="#DejaVuSans-20"/>
       <use x="814.4375" xlink:href="#DejaVuSans-68"/>
       <use x="877.816406" xlink:href="#DejaVuSans-75"/>
       <use x="941.195312" xlink:href="#DejaVuSans-6d"/>
       <use x="1038.607422" xlink:href="#DejaVuSans-61"/>
       <use x="1099.886719" xlink:href="#DejaVuSans-6e"/>
       <use x="1163.265625" xlink:href="#DejaVuSans-20"/>
       <use x="1195.052734" xlink:href="#DejaVuSans-62"/>
       <use x="1258.529297" xlink:href="#DejaVuSans-65"/>
       <use x="1320.052734" xlink:href="#DejaVuSans-68"/>
       <use x="1383.431641" xlink:href="#DejaVuSans-61"/>
       <use x="1444.710938" xlink:href="#DejaVuSans-76"/>
       <use x="1503.890625" xlink:href="#DejaVuSans-69"/>
       <use x="1531.673828" xlink:href="#DejaVuSans-6f"/>
       <use x="1592.855469" xlink:href="#DejaVuSans-72"/>
      </g>
     </g>
    </g>
    <g id="ytick_8">
     <g id="line2d_16">
      <g>
       <use style="stroke:#000000;" x="344.815" xlink:href="#mad23810b22" y="233.517344"/>
      </g>
     </g>
     <g id="text_17">
      <!-- Observation and listening -->
      <defs>
       <path d="M 39.40625 66.21875 
Q 28.65625 66.21875 22.328125 58.203125 
Q 16.015625 50.203125 16.015625 36.375 
Q 16.015625 22.609375 22.328125 14.59375 
Q 28.65625 6.59375 39.40625 6.59375 
Q 50.140625 6.59375 56.421875 14.59375 
Q 62.703125 22.609375 62.703125 36.375 
Q 62.703125 50.203125 56.421875 58.203125 
Q 50.140625 66.21875 39.40625 66.21875 
z
M 39.40625 74.21875 
Q 54.734375 74.21875 63.90625 63.9375 
Q 73.09375 53.65625 73.09375 36.375 
Q 73.09375 19.140625 63.90625 8.859375 
Q 54.734375 -1.421875 39.40625 -1.421875 
Q 24.03125 -1.421875 14.8125 8.828125 
Q 5.609375 19.09375 5.609375 36.375 
Q 5.609375 53.65625 14.8125 63.9375 
Q 24.03125 74.21875 39.40625 74.21875 
z
" id="DejaVuSans-4f"/>
      </defs>
      <g transform="translate(141.255625 239.216172)scale(0.15 -0.15)">
       <use xlink:href="#DejaVuSans-4f"/>
       <use x="78.710938" xlink:href="#DejaVuSans-62"/>
       <use x="142.1875" xlink:href="#DejaVuSans-73"/>
       <use x="194.287109" xlink:href="#DejaVuSans-65"/>
       <use x="255.810547" xlink:href="#DejaVuSans-72"/>
       <use x="296.923828" xlink:href="#DejaVuSans-76"/>
       <use x="356.103516" xlink:href="#DejaVuSans-61"/>
       <use x="417.382812" xlink:href="#DejaVuSans-74"/>
       <use x="456.591797" xlink:href="#DejaVuSans-69"/>
       <use x="484.375" xlink:href="#DejaVuSans-6f"/>
       <use x="545.556641" xlink:href="#DejaVuSans-6e"/>
       <use x="608.935547" xlink:href="#DejaVuSans-20"/>
       <use x="640.722656" xlink:href="#DejaVuSans-61"/>
       <use x="702.001953" xlink:href="#DejaVuSans-6e"/>
       <use x="765.380859" xlink:href="#DejaVuSans-64"/>
       <use x="828.857422" xlink:href="#DejaVuSans-20"/>
       <use x="860.644531" xlink:href="#DejaVuSans-6c"/>
       <use x="888.427734" xlink:href="#DejaVuSans-69"/>
       <use x="916.210938" xlink:href="#DejaVuSans-73"/>
       <use x="968.310547" xlink:href="#DejaVuSans-74"/>
       <use x="1007.519531" xlink:href="#DejaVuSans-65"/>
       <use x="1069.042969" xlink:href="#DejaVuSans-6e"/>
       <use x="1132.421875" xlink:href="#DejaVuSans-69"/>
       <use x="1160.205078" xlink:href="#DejaVuSans-6e"/>
       <use x="1223.583984" xlink:href="#DejaVuSans-67"/>
      </g>
     </g>
    </g>
    <g id="ytick_9">
     <g id="line2d_17">
      <g>
       <use style="stroke:#000000;" x="344.815" xlink:href="#mad23810b22" y="259.12599"/>
      </g>
     </g>
     <g id="text_18">
      <!-- Improvisation -->
      <defs>
       <path d="M 9.8125 72.90625 
L 19.671875 72.90625 
L 19.671875 0 
L 9.8125 0 
z
" id="DejaVuSans-49"/>
      </defs>
      <g transform="translate(231.632969 264.824818)scale(0.15 -0.15)">
       <use xlink:href="#DejaVuSans-49"/>
       <use x="29.492188" xlink:href="#DejaVuSans-6d"/>
       <use x="126.904297" xlink:href="#DejaVuSans-70"/>
       <use x="190.380859" xlink:href="#DejaVuSans-72"/>
       <use x="231.462891" xlink:href="#DejaVuSans-6f"/>
       <use x="292.644531" xlink:href="#DejaVuSans-76"/>
       <use x="351.824219" xlink:href="#DejaVuSans-69"/>
       <use x="379.607422" xlink:href="#DejaVuSans-73"/>
       <use x="431.707031" xlink:href="#DejaVuSans-61"/>
       <use x="492.986328" xlink:href="#DejaVuSans-74"/>
       <use x="532.195312" xlink:href="#DejaVuSans-69"/>
       <use x="559.978516" xlink:href="#DejaVuSans-6f"/>
       <use x="621.160156" xlink:href="#DejaVuSans-6e"/>
      </g>
     </g>
    </g>
    <g id="ytick_10">
     <g id="line2d_18">
      <g>
       <use style="stroke:#000000;" x="344.815" xlink:href="#mad23810b22" y="284.734635"/>
      </g>
     </g>
     <g id="text_19">
      <!-- Scientific methods -->
      <defs>
       <path d="M 53.515625 70.515625 
L 53.515625 60.890625 
Q 47.90625 63.578125 42.921875 64.890625 
Q 37.9375 66.21875 33.296875 66.21875 
Q 25.25 66.21875 20.875 63.09375 
Q 16.5 59.96875 16.5 54.203125 
Q 16.5 49.359375 19.40625 46.890625 
Q 22.3125 44.4375 30.421875 42.921875 
L 36.375 41.703125 
Q 47.40625 39.59375 52.65625 34.296875 
Q 57.90625 29 57.90625 20.125 
Q 57.90625 9.515625 50.796875 4.046875 
Q 43.703125 -1.421875 29.984375 -1.421875 
Q 24.8125 -1.421875 18.96875 -0.25 
Q 13.140625 0.921875 6.890625 3.21875 
L 6.890625 13.375 
Q 12.890625 10.015625 18.65625 8.296875 
Q 24.421875 6.59375 29.984375 6.59375 
Q 38.421875 6.59375 43.015625 9.90625 
Q 47.609375 13.234375 47.609375 19.390625 
Q 47.609375 24.75 44.3125 27.78125 
Q 41.015625 30.8125 33.5 32.328125 
L 27.484375 33.5 
Q 16.453125 35.6875 11.515625 40.375 
Q 6.59375 45.0625 6.59375 53.421875 
Q 6.59375 63.09375 13.40625 68.65625 
Q 20.21875 74.21875 32.171875 74.21875 
Q 37.3125 74.21875 42.625 73.28125 
Q 47.953125 72.359375 53.515625 70.515625 
z
" id="DejaVuSans-53"/>
       <path d="M 37.109375 75.984375 
L 37.109375 68.5 
L 28.515625 68.5 
Q 23.6875 68.5 21.796875 66.546875 
Q 19.921875 64.59375 19.921875 59.515625 
L 19.921875 54.6875 
L 34.71875 54.6875 
L 34.71875 47.703125 
L 19.921875 47.703125 
L 19.921875 0 
L 10.890625 0 
L 10.890625 47.703125 
L 2.296875 47.703125 
L 2.296875 54.6875 
L 10.890625 54.6875 
L 10.890625 58.5 
Q 10.890625 67.625 15.140625 71.796875 
Q 19.390625 75.984375 28.609375 75.984375 
z
" id="DejaVuSans-66"/>
      </defs>
      <g transform="translate(195.389219 290.433464)scale(0.15 -0.15)">
       <use xlink:href="#DejaVuSans-53"/>
       <use x="63.476562" xlink:href="#DejaVuSans-63"/>
       <use x="118.457031" xlink:href="#DejaVuSans-69"/>
       <use x="146.240234" xlink:href="#DejaVuSans-65"/>
       <use x="207.763672" xlink:href="#DejaVuSans-6e"/>
       <use x="271.142578" xlink:href="#DejaVuSans-74"/>
       <use x="310.351562" xlink:href="#DejaVuSans-69"/>
       <use x="338.134766" xlink:href="#DejaVuSans-66"/>
       <use x="373.339844" xlink:href="#DejaVuSans-69"/>
       <use x="401.123047" xlink:href="#DejaVuSans-63"/>
       <use x="456.103516" xlink:href="#DejaVuSans-20"/>
       <use x="487.890625" xlink:href="#DejaVuSans-6d"/>
       <use x="585.302734" xlink:href="#DejaVuSans-65"/>
       <use x="646.826172" xlink:href="#DejaVuSans-74"/>
       <use x="686.035156" xlink:href="#DejaVuSans-68"/>
       <use x="749.414062" xlink:href="#DejaVuSans-6f"/>
       <use x="810.595703" xlink:href="#DejaVuSans-64"/>
       <use x="874.072266" xlink:href="#DejaVuSans-73"/>
      </g>
     </g>
    </g>
    <g id="ytick_11">
     <g id="line2d_19">
      <g>
       <use style="stroke:#000000;" x="344.815" xlink:href="#mad23810b22" y="310.343281"/>
      </g>
     </g>
     <g id="text_20">
      <!-- Interpersonal skills -->
      <g transform="translate(192.747813 316.042109)scale(0.15 -0.15)">
       <use xlink:href="#DejaVuSans-49"/>
       <use x="29.492188" xlink:href="#DejaVuSans-6e"/>
       <use x="92.871094" xlink:href="#DejaVuSans-74"/>
       <use x="132.080078" xlink:href="#DejaVuSans-65"/>
       <use x="193.603516" xlink:href="#DejaVuSans-72"/>
       <use x="234.716797" xlink:href="#DejaVuSans-70"/>
       <use x="298.193359" xlink:href="#DejaVuSans-65"/>
       <use x="359.716797" xlink:href="#DejaVuSans-72"/>
       <use x="400.830078" xlink:href="#DejaVuSans-73"/>
       <use x="452.929688" xlink:href="#DejaVuSans-6f"/>
       <use x="514.111328" xlink:href="#DejaVuSans-6e"/>
       <use x="577.490234" xlink:href="#DejaVuSans-61"/>
       <use x="638.769531" xlink:href="#DejaVuSans-6c"/>
       <use x="666.552734" xlink:href="#DejaVuSans-20"/>
       <use x="698.339844" xlink:href="#DejaVuSans-73"/>
       <use x="750.439453" xlink:href="#DejaVuSans-6b"/>
       <use x="808.349609" xlink:href="#DejaVuSans-69"/>
       <use x="836.132812" xlink:href="#DejaVuSans-6c"/>
       <use x="863.916016" xlink:href="#DejaVuSans-6c"/>
       <use x="891.699219" xlink:href="#DejaVuSans-73"/>
      </g>
     </g>
    </g>
    <g id="ytick_12">
     <g id="line2d_20">
      <g>
       <use style="stroke:#000000;" x="344.815" xlink:href="#mad23810b22" y="335.951927"/>
      </g>
     </g>
     <g id="text_21">
      <!-- Systems thinking -->
      <g transform="translate(204.855625 341.650755)scale(0.15 -0.15)">
       <use xlink:href="#DejaVuSans-53"/>
       <use x="63.476562" xlink:href="#DejaVuSans-79"/>
       <use x="122.65625" xlink:href="#DejaVuSans-73"/>
       <use x="174.755859" xlink:href="#DejaVuSans-74"/>
       <use x="213.964844" xlink:href="#DejaVuSans-65"/>
       <use x="275.488281" xlink:href="#DejaVuSans-6d"/>
       <use x="372.900391" xlink:href="#DejaVuSans-73"/>
       <use x="425" xlink:href="#DejaVuSans-20"/>
       <use x="456.787109" xlink:href="#DejaVuSans-74"/>
       <use x="495.996094" xlink:href="#DejaVuSans-68"/>
       <use x="559.375" xlink:href="#DejaVuSans-69"/>
       <use x="587.158203" xlink:href="#DejaVuSans-6e"/>
       <use x="650.537109" xlink:href="#DejaVuSans-6b"/>
       <use x="708.447266" xlink:href="#DejaVuSans-69"/>
       <use x="736.230469" xlink:href="#DejaVuSans-6e"/>
       <use x="799.609375" xlink:href="#DejaVuSans-67"/>
      </g>
     </g>
    </g>
    <g id="ytick_13">
     <g id="line2d_21">
      <g>
       <use style="stroke:#000000;" x="344.815" xlink:href="#mad23810b22" y="361.560573"/>
      </g>
     </g>
     <g id="text_22">
      <!-- Managing complexity -->
      <defs>
       <path d="M 9.8125 72.90625 
L 24.515625 72.90625 
L 43.109375 23.296875 
L 61.8125 72.90625 
L 76.515625 72.90625 
L 76.515625 0 
L 66.890625 0 
L 66.890625 64.015625 
L 48.09375 14.015625 
L 38.1875 14.015625 
L 19.390625 64.015625 
L 19.390625 0 
L 9.8125 0 
z
" id="DejaVuSans-4d"/>
       <path d="M 54.890625 54.6875 
L 35.109375 28.078125 
L 55.90625 0 
L 45.3125 0 
L 29.390625 21.484375 
L 13.484375 0 
L 2.875 0 
L 24.125 28.609375 
L 4.6875 54.6875 
L 15.28125 54.6875 
L 29.78125 35.203125 
L 44.28125 54.6875 
z
" id="DejaVuSans-78"/>
      </defs>
      <g transform="translate(173.238438 367.259401)scale(0.15 -0.15)">
       <use xlink:href="#DejaVuSans-4d"/>
       <use x="86.279297" xlink:href="#DejaVuSans-61"/>
       <use x="147.558594" xlink:href="#DejaVuSans-6e"/>
       <use x="210.9375" xlink:href="#DejaVuSans-61"/>
       <use x="272.216797" xlink:href="#DejaVuSans-67"/>
       <use x="335.693359" xlink:href="#DejaVuSans-69"/>
       <use x="363.476562" xlink:href="#DejaVuSans-6e"/>
       <use x="426.855469" xlink:href="#DejaVuSans-67"/>
       <use x="490.332031" xlink:href="#DejaVuSans-20"/>
       <use x="522.119141" xlink:href="#DejaVuSans-63"/>
       <use x="577.099609" xlink:href="#DejaVuSans-6f"/>
       <use x="638.28125" xlink:href="#DejaVuSans-6d"/>
       <use x="735.693359" xlink:href="#DejaVuSans-70"/>
       <use x="799.169922" xlink:href="#DejaVuSans-6c"/>
       <use x="826.953125" xlink:href="#DejaVuSans-65"/>
       <use x="888.460938" xlink:href="#DejaVuSans-78"/>
       <use x="947.640625" xlink:href="#DejaVuSans-69"/>
       <use x="975.423828" xlink:href="#DejaVuSans-74"/>
       <use x="1014.632812" xlink:href="#DejaVuSans-79"/>
      </g>
     </g>
    </g>
    <g id="ytick_14">
     <g id="line2d_22">
      <g>
       <use style="stroke:#000000;" x="344.815" xlink:href="#mad23810b22" y="387.169219"/>
      </g>
     </g>
     <g id="text_23">
      <!-- Communication skills -->
      <g transform="translate(174.506406 392.868047)scale(0.15 -0.15)">
       <use xlink:href="#DejaVuSans-43"/>
       <use x="69.824219" xlink:href="#DejaVuSans-6f"/>
       <use x="131.005859" xlink:href="#DejaVuSans-6d"/>
       <use x="228.417969" xlink:href="#DejaVuSans-6d"/>
       <use x="325.830078" xlink:href="#DejaVuSans-75"/>
       <use x="389.208984" xlink:href="#DejaVuSans-6e"/>
       <use x="452.587891" xlink:href="#DejaVuSans-69"/>
       <use x="480.371094" xlink:href="#DejaVuSans-63"/>
       <use x="535.351562" xlink:href="#DejaVuSans-61"/>
       <use x="596.630859" xlink:href="#DejaVuSans-74"/>
       <use x="635.839844" xlink:href="#DejaVuSans-69"/>
       <use x="663.623047" xlink:href="#DejaVuSans-6f"/>
       <use x="724.804688" xlink:href="#DejaVuSans-6e"/>
       <use x="788.183594" xlink:href="#DejaVuSans-20"/>
       <use x="819.970703" xlink:href="#DejaVuSans-73"/>
       <use x="872.070312" xlink:href="#DejaVuSans-6b"/>
       <use x="929.980469" xlink:href="#DejaVuSans-69"/>
       <use x="957.763672" xlink:href="#DejaVuSans-6c"/>
       <use x="985.546875" xlink:href="#DejaVuSans-6c"/>
       <use x="1013.330078" xlink:href="#DejaVuSans-73"/>
      </g>
     </g>
    </g>
    <g id="ytick_15">
     <g id="line2d_23">
      <g>
       <use style="stroke:#000000;" x="344.815" xlink:href="#mad23810b22" y="412.777865"/>
      </g>
     </g>
     <g id="text_24">
      <!-- Architecture and environmental design -->
      <g transform="translate(40.336094 418.476693)scale(0.15 -0.15)">
       <use xlink:href="#DejaVuSans-41"/>
       <use x="68.408203" xlink:href="#DejaVuSans-72"/>
       <use x="109.490234" xlink:href="#DejaVuSans-63"/>
       <use x="164.470703" xlink:href="#DejaVuSans-68"/>
       <use x="227.849609" xlink:href="#DejaVuSans-69"/>
       <use x="255.632812" xlink:href="#DejaVuSans-74"/>
       <use x="294.841797" xlink:href="#DejaVuSans-65"/>
       <use x="356.365234" xlink:href="#DejaVuSans-63"/>
       <use x="411.345703" xlink:href="#DejaVuSans-74"/>
       <use x="450.554688" xlink:href="#DejaVuSans-75"/>
       <use x="513.933594" xlink:href="#DejaVuSans-72"/>
       <use x="555.015625" xlink:href="#DejaVuSans-65"/>
       <use x="616.539062" xlink:href="#DejaVuSans-20"/>
       <use x="648.326172" xlink:href="#DejaVuSans-61"/>
       <use x="709.605469" xlink:href="#DejaVuSans-6e"/>
       <use x="772.984375" xlink:href="#DejaVuSans-64"/>
       <use x="836.460938" xlink:href="#DejaVuSans-20"/>
       <use x="868.248047" xlink:href="#DejaVuSans-65"/>
       <use x="929.771484" xlink:href="#DejaVuSans-6e"/>
       <use x="993.150391" xlink:href="#DejaVuSans-76"/>
       <use x="1052.330078" xlink:href="#DejaVuSans-69"/>
       <use x="1080.113281" xlink:href="#DejaVuSans-72"/>
       <use x="1121.195312" xlink:href="#DejaVuSans-6f"/>
       <use x="1182.376953" xlink:href="#DejaVuSans-6e"/>
       <use x="1245.755859" xlink:href="#DejaVuSans-6d"/>
       <use x="1343.167969" xlink:href="#DejaVuSans-65"/>
       <use x="1404.691406" xlink:href="#DejaVuSans-6e"/>
       <use x="1468.070312" xlink:href="#DejaVuSans-74"/>
       <use x="1507.279297" xlink:href="#DejaVuSans-61"/>
       <use x="1568.558594" xlink:href="#DejaVuSans-6c"/>
       <use x="1596.341797" xlink:href="#DejaVuSans-20"/>
       <use x="1628.128906" xlink:href="#DejaVuSans-64"/>
       <use x="1691.605469" xlink:href="#DejaVuSans-65"/>
       <use x="1753.128906" xlink:href="#DejaVuSans-73"/>
       <use x="1805.228516" xlink:href="#DejaVuSans-69"/>
       <use x="1833.011719" xlink:href="#DejaVuSans-67"/>
       <use x="1896.488281" xlink:href="#DejaVuSans-6e"/>
      </g>
     </g>
    </g>
    <g id="ytick_16">
     <g id="line2d_24">
      <g>
       <use style="stroke:#000000;" x="344.815" xlink:href="#mad23810b22" y="438.38651"/>
      </g>
     </g>
     <g id="text_25">
      <!-- Storytelling -->
      <g transform="translate(248.048594 444.085339)scale(0.15 -0.15)">
       <use xlink:href="#DejaVuSans-53"/>
       <use x="63.476562" xlink:href="#DejaVuSans-74"/>
       <use x="102.685547" xlink:href="#DejaVuSans-6f"/>
       <use x="163.867188" xlink:href="#DejaVuSans-72"/>
       <use x="204.980469" xlink:href="#DejaVuSans-79"/>
       <use x="264.160156" xlink:href="#DejaVuSans-74"/>
       <use x="303.369141" xlink:href="#DejaVuSans-65"/>
       <use x="364.892578" xlink:href="#DejaVuSans-6c"/>
       <use x="392.675781" xlink:href="#DejaVuSans-6c"/>
       <use x="420.458984" xlink:href="#DejaVuSans-69"/>
       <use x="448.242188" xlink:href="#DejaVuSans-6e"/>
       <use x="511.621094" xlink:href="#DejaVuSans-67"/>
      </g>
     </g>
    </g>
    <g id="ytick_17">
     <g id="line2d_25">
      <g>
       <use style="stroke:#000000;" x="344.815" xlink:href="#mad23810b22" y="463.995156"/>
      </g>
     </g>
     <g id="text_26">
      <!-- Empathy -->
      <defs>
       <path d="M 9.8125 72.90625 
L 55.90625 72.90625 
L 55.90625 64.59375 
L 19.671875 64.59375 
L 19.671875 43.015625 
L 54.390625 43.015625 
L 54.390625 34.71875 
L 19.671875 34.71875 
L 19.671875 8.296875 
L 56.78125 8.296875 
L 56.78125 0 
L 9.8125 0 
z
" id="DejaVuSans-45"/>
      </defs>
      <g transform="translate(267.24625 469.693984)scale(0.15 -0.15)">
       <use xlink:href="#DejaVuSans-45"/>
       <use x="63.183594" xlink:href="#DejaVuSans-6d"/>
       <use x="160.595703" xlink:href="#DejaVuSans-70"/>
       <use x="224.072266" xlink:href="#DejaVuSans-61"/>
       <use x="285.351562" xlink:href="#DejaVuSans-74"/>
       <use x="324.560547" xlink:href="#DejaVuSans-68"/>
       <use x="387.939453" xlink:href="#DejaVuSans-79"/>
      </g>
     </g>
    </g>
    <g id="ytick_18">
     <g id="line2d_26">
      <g>
       <use style="stroke:#000000;" x="344.815" xlink:href="#mad23810b22" y="489.603802"/>
      </g>
     </g>
     <g id="text_27">
      <!-- Asking good questions -->
      <defs>
       <path d="M 14.796875 27.296875 
Q 14.796875 17.390625 18.875 11.75 
Q 22.953125 6.109375 30.078125 6.109375 
Q 37.203125 6.109375 41.296875 11.75 
Q 45.40625 17.390625 45.40625 27.296875 
Q 45.40625 37.203125 41.296875 42.84375 
Q 37.203125 48.484375 30.078125 48.484375 
Q 22.953125 48.484375 18.875 42.84375 
Q 14.796875 37.203125 14.796875 27.296875 
z
M 45.40625 8.203125 
Q 42.578125 3.328125 38.25 0.953125 
Q 33.9375 -1.421875 27.875 -1.421875 
Q 17.96875 -1.421875 11.734375 6.484375 
Q 5.515625 14.40625 5.515625 27.296875 
Q 5.515625 40.1875 11.734375 48.09375 
Q 17.96875 56 27.875 56 
Q 33.9375 56 38.25 53.625 
Q 42.578125 51.265625 45.40625 46.390625 
L 45.40625 54.6875 
L 54.390625 54.6875 
L 54.390625 -20.796875 
L 45.40625 -20.796875 
z
" id="DejaVuSans-71"/>
      </defs>
      <g transform="translate(164.803281 495.30263)scale(0.15 -0.15)">
       <use xlink:href="#DejaVuSans-41"/>
       <use x="68.408203" xlink:href="#DejaVuSans-73"/>
       <use x="120.507812" xlink:href="#DejaVuSans-6b"/>
       <use x="178.417969" xlink:href="#DejaVuSans-69"/>
       <use x="206.201172" xlink:href="#DejaVuSans-6e"/>
       <use x="269.580078" xlink:href="#DejaVuSans-67"/>
       <use x="333.056641" xlink:href="#DejaVuSans-20"/>
       <use x="364.84375" xlink:href="#DejaVuSans-67"/>
       <use x="428.320312" xlink:href="#DejaVuSans-6f"/>
       <use x="489.501953" xlink:href="#DejaVuSans-6f"/>
       <use x="550.683594" xlink:href="#DejaVuSans-64"/>
       <use x="614.160156" xlink:href="#DejaVuSans-20"/>
       <use x="645.947266" xlink:href="#DejaVuSans-71"/>
       <use x="709.423828" xlink:href="#DejaVuSans-75"/>
       <use x="772.802734" xlink:href="#DejaVuSans-65"/>
       <use x="834.326172" xlink:href="#DejaVuSans-73"/>
       <use x="886.425781" xlink:href="#DejaVuSans-74"/>
       <use x="925.634766" xlink:href="#DejaVuSans-69"/>
       <use x="953.417969" xlink:href="#DejaVuSans-6f"/>
       <use x="1014.599609" xlink:href="#DejaVuSans-6e"/>
       <use x="1077.978516" xlink:href="#DejaVuSans-73"/>
      </g>
     </g>
    </g>
    <g id="ytick_19">
     <g id="line2d_27">
      <g>
       <use style="stroke:#000000;" x="344.815" xlink:href="#mad23810b22" y="515.212448"/>
      </g>
     </g>
     <g id="text_28">
      <!-- Voice interface design -->
      <defs>
       <path d="M 28.609375 0 
L 0.78125 72.90625 
L 11.078125 72.90625 
L 34.1875 11.53125 
L 57.328125 72.90625 
L 67.578125 72.90625 
L 39.796875 0 
z
" id="DejaVuSans-56"/>
      </defs>
      <g transform="translate(167.050938 520.911276)scale(0.15 -0.15)">
       <use xlink:href="#DejaVuSans-56"/>
       <use x="68.298828" xlink:href="#DejaVuSans-6f"/>
       <use x="129.480469" xlink:href="#DejaVuSans-69"/>
       <use x="157.263672" xlink:href="#DejaVuSans-63"/>
       <use x="212.244141" xlink:href="#DejaVuSans-65"/>
       <use x="273.767578" xlink:href="#DejaVuSans-20"/>
       <use x="305.554688" xlink:href="#DejaVuSans-69"/>
       <use x="333.337891" xlink:href="#DejaVuSans-6e"/>
       <use x="396.716797" xlink:href="#DejaVuSans-74"/>
       <use x="435.925781" xlink:href="#DejaVuSans-65"/>
       <use x="497.449219" xlink:href="#DejaVuSans-72"/>
       <use x="538.5625" xlink:href="#DejaVuSans-66"/>
       <use x="573.767578" xlink:href="#DejaVuSans-61"/>
       <use x="635.046875" xlink:href="#DejaVuSans-63"/>
       <use x="690.027344" xlink:href="#DejaVuSans-65"/>
       <use x="751.550781" xlink:href="#DejaVuSans-20"/>
       <use x="783.337891" xlink:href="#DejaVuSans-64"/>
       <use x="846.814453" xlink:href="#DejaVuSans-65"/>
       <use x="908.337891" xlink:href="#DejaVuSans-73"/>
       <use x="960.4375" xlink:href="#DejaVuSans-69"/>
       <use x="988.220703" xlink:href="#DejaVuSans-67"/>
       <use x="1051.697266" xlink:href="#DejaVuSans-6e"/>
      </g>
     </g>
    </g>
    <g id="ytick_20">
     <g id="line2d_28">
      <g>
       <use style="stroke:#000000;" x="344.815" xlink:href="#mad23810b22" y="540.821094"/>
      </g>
     </g>
     <g id="text_29">
      <!-- DIY or maker mentality -->
      <defs>
       <path d="M -0.203125 72.90625 
L 10.40625 72.90625 
L 30.609375 42.921875 
L 50.6875 72.90625 
L 61.28125 72.90625 
L 35.5 34.71875 
L 35.5 0 
L 25.59375 0 
L 25.59375 34.71875 
z
" id="DejaVuSans-59"/>
      </defs>
      <g transform="translate(160.141563 546.519922)scale(0.15 -0.15)">
       <use xlink:href="#DejaVuSans-44"/>
       <use x="77.001953" xlink:href="#DejaVuSans-49"/>
       <use x="106.494141" xlink:href="#DejaVuSans-59"/>
       <use x="167.578125" xlink:href="#DejaVuSans-20"/>
       <use x="199.365234" xlink:href="#DejaVuSans-6f"/>
       <use x="260.546875" xlink:href="#DejaVuSans-72"/>
       <use x="301.660156" xlink:href="#DejaVuSans-20"/>
       <use x="333.447266" xlink:href="#DejaVuSans-6d"/>
       <use x="430.859375" xlink:href="#DejaVuSans-61"/>
       <use x="492.138672" xlink:href="#DejaVuSans-6b"/>
       <use x="550.001953" xlink:href="#DejaVuSans-65"/>
       <use x="611.525391" xlink:href="#DejaVuSans-72"/>
       <use x="652.638672" xlink:href="#DejaVuSans-20"/>
       <use x="684.425781" xlink:href="#DejaVuSans-6d"/>
       <use x="781.837891" xlink:href="#DejaVuSans-65"/>
       <use x="843.361328" xlink:href="#DejaVuSans-6e"/>
       <use x="906.740234" xlink:href="#DejaVuSans-74"/>
       <use x="945.949219" xlink:href="#DejaVuSans-61"/>
       <use x="1007.228516" xlink:href="#DejaVuSans-6c"/>
       <use x="1035.011719" xlink:href="#DejaVuSans-69"/>
       <use x="1062.794922" xlink:href="#DejaVuSans-74"/>
       <use x="1102.003906" xlink:href="#DejaVuSans-79"/>
      </g>
     </g>
    </g>
    <g id="ytick_21">
     <g id="line2d_29">
      <g>
       <use style="stroke:#000000;" x="344.815" xlink:href="#mad23810b22" y="566.42974"/>
      </g>
     </g>
     <g id="text_30">
      <!-- Cross-functional skills -->
      <defs>
       <path d="M 4.890625 31.390625 
L 31.203125 31.390625 
L 31.203125 23.390625 
L 4.890625 23.390625 
z
" id="DejaVuSans-2d"/>
      </defs>
      <g transform="translate(171.24625 572.128568)scale(0.15 -0.15)">
       <use xlink:href="#DejaVuSans-43"/>
       <use x="69.824219" xlink:href="#DejaVuSans-72"/>
       <use x="110.90625" xlink:href="#DejaVuSans-6f"/>
       <use x="172.087891" xlink:href="#DejaVuSans-73"/>
       <use x="224.1875" xlink:href="#DejaVuSans-73"/>
       <use x="276.287109" xlink:href="#DejaVuSans-2d"/>
       <use x="312.371094" xlink:href="#DejaVuSans-66"/>
       <use x="347.576172" xlink:href="#DejaVuSans-75"/>
       <use x="410.955078" xlink:href="#DejaVuSans-6e"/>
       <use x="474.333984" xlink:href="#DejaVuSans-63"/>
       <use x="529.314453" xlink:href="#DejaVuSans-74"/>
       <use x="568.523438" xlink:href="#DejaVuSans-69"/>
       <use x="596.306641" xlink:href="#DejaVuSans-6f"/>
       <use x="657.488281" xlink:href="#DejaVuSans-6e"/>
       <use x="720.867188" xlink:href="#DejaVuSans-61"/>
       <use x="782.146484" xlink:href="#DejaVuSans-6c"/>
       <use x="809.929688" xlink:href="#DejaVuSans-20"/>
       <use x="841.716797" xlink:href="#DejaVuSans-73"/>
       <use x="893.816406" xlink:href="#DejaVuSans-6b"/>
       <use x="951.726562" xlink:href="#DejaVuSans-69"/>
       <use x="979.509766" xlink:href="#DejaVuSans-6c"/>
       <use x="1007.292969" xlink:href="#DejaVuSans-6c"/>
       <use x="1035.076172" xlink:href="#DejaVuSans-73"/>
      </g>
     </g>
    </g>
    <g id="ytick_22">
     <g id="line2d_30">
      <g>
       <use style="stroke:#000000;" x="344.815" xlink:href="#mad23810b22" y="592.038385"/>
      </g>
     </g>
     <g id="text_31">
      <!-- Cross-cultural skills -->
      <g transform="translate(189.044688 597.737214)scale(0.15 -0.15)">
       <use xlink:href="#DejaVuSans-43"/>
       <use x="69.824219" xlink:href="#DejaVuSans-72"/>
       <use x="110.90625" xlink:href="#DejaVuSans-6f"/>
       <use x="172.087891" xlink:href="#DejaVuSans-73"/>
       <use x="224.1875" xlink:href="#DejaVuSans-73"/>
       <use x="276.287109" xlink:href="#DejaVuSans-2d"/>
       <use x="312.371094" xlink:href="#DejaVuSans-63"/>
       <use x="367.351562" xlink:href="#DejaVuSans-75"/>
       <use x="430.730469" xlink:href="#DejaVuSans-6c"/>
       <use x="458.513672" xlink:href="#DejaVuSans-74"/>
       <use x="497.722656" xlink:href="#DejaVuSans-75"/>
       <use x="561.101562" xlink:href="#DejaVuSans-72"/>
       <use x="602.214844" xlink:href="#DejaVuSans-61"/>
       <use x="663.494141" xlink:href="#DejaVuSans-6c"/>
       <use x="691.277344" xlink:href="#DejaVuSans-20"/>
       <use x="723.064453" xlink:href="#DejaVuSans-73"/>
       <use x="775.164062" xlink:href="#DejaVuSans-6b"/>
       <use x="833.074219" xlink:href="#DejaVuSans-69"/>
       <use x="860.857422" xlink:href="#DejaVuSans-6c"/>
       <use x="888.640625" xlink:href="#DejaVuSans-6c"/>
       <use x="916.423828" xlink:href="#DejaVuSans-73"/>
      </g>
     </g>
    </g>
    <g id="ytick_23">
     <g id="line2d_31">
      <g>
       <use style="stroke:#000000;" x="344.815" xlink:href="#mad23810b22" y="617.647031"/>
      </g>
     </g>
     <g id="text_32">
      <!-- None of these -->
      <defs>
       <path d="M 9.8125 72.90625 
L 23.09375 72.90625 
L 55.421875 11.921875 
L 55.421875 72.90625 
L 64.984375 72.90625 
L 64.984375 0 
L 51.703125 0 
L 19.390625 60.984375 
L 19.390625 0 
L 9.8125 0 
z
" id="DejaVuSans-4e"/>
      </defs>
      <g transform="translate(229.525938 623.345859)scale(0.15 -0.15)">
       <use xlink:href="#DejaVuSans-4e"/>
       <use x="74.804688" xlink:href="#DejaVuSans-6f"/>
       <use x="135.986328" xlink:href="#DejaVuSans-6e"/>
       <use x="199.365234" xlink:href="#DejaVuSans-65"/>
       <use x="260.888672" xlink:href="#DejaVuSans-20"/>
       <use x="292.675781" xlink:href="#DejaVuSans-6f"/>
       <use x="353.857422" xlink:href="#DejaVuSans-66"/>
       <use x="389.0625" xlink:href="#DejaVuSans-20"/>
       <use x="420.849609" xlink:href="#DejaVuSans-74"/>
       <use x="460.058594" xlink:href="#DejaVuSans-68"/>
       <use x="523.4375" xlink:href="#DejaVuSans-65"/>
       <use x="584.960938" xlink:href="#DejaVuSans-73"/>
       <use x="637.060547" xlink:href="#DejaVuSans-65"/>
      </g>
     </g>
    </g>
    <g id="ytick_24">
     <g id="line2d_32">
      <g>
       <use style="stroke:#000000;" x="344.815" xlink:href="#mad23810b22" y="643.255677"/>
      </g>
     </g>
     <g id="text_33">
      <!-- Adaptability to tech and social change -->
      <g transform="translate(46.012656 648.954505)scale(0.15 -0.15)">
       <use xlink:href="#DejaVuSans-41"/>
       <use x="68.392578" xlink:href="#DejaVuSans-64"/>
       <use x="131.869141" xlink:href="#DejaVuSans-61"/>
       <use x="193.148438" xlink:href="#DejaVuSans-70"/>
       <use x="256.625" xlink:href="#DejaVuSans-74"/>
       <use x="295.833984" xlink:href="#DejaVuSans-61"/>
       <use x="357.113281" xlink:href="#DejaVuSans-62"/>
       <use x="420.589844" xlink:href="#DejaVuSans-69"/>
       <use x="448.373047" xlink:href="#DejaVuSans-6c"/>
       <use x="476.15625" xlink:href="#DejaVuSans-69"/>
       <use x="503.939453" xlink:href="#DejaVuSans-74"/>
       <use x="543.148438" xlink:href="#DejaVuSans-79"/>
       <use x="602.328125" xlink:href="#DejaVuSans-20"/>
       <use x="634.115234" xlink:href="#DejaVuSans-74"/>
       <use x="673.324219" xlink:href="#DejaVuSans-6f"/>
       <use x="734.505859" xlink:href="#DejaVuSans-20"/>
       <use x="766.292969" xlink:href="#DejaVuSans-74"/>
       <use x="805.501953" xlink:href="#DejaVuSans-65"/>
       <use x="867.025391" xlink:href="#DejaVuSans-63"/>
       <use x="922.005859" xlink:href="#DejaVuSans-68"/>
       <use x="985.384766" xlink:href="#DejaVuSans-20"/>
       <use x="1017.171875" xlink:href="#DejaVuSans-61"/>
       <use x="1078.451172" xlink:href="#DejaVuSans-6e"/>
       <use x="1141.830078" xlink:href="#DejaVuSans-64"/>
       <use x="1205.306641" xlink:href="#DejaVuSans-20"/>
       <use x="1237.09375" xlink:href="#DejaVuSans-73"/>
       <use x="1289.193359" xlink:href="#DejaVuSans-6f"/>
       <use x="1350.375" xlink:href="#DejaVuSans-63"/>
       <use x="1405.355469" xlink:href="#DejaVuSans-69"/>
       <use x="1433.138672" xlink:href="#DejaVuSans-61"/>
       <use x="1494.417969" xlink:href="#DejaVuSans-6c"/>
       <use x="1522.201172" xlink:href="#DejaVuSans-20"/>
       <use x="1553.988281" xlink:href="#DejaVuSans-63"/>
       <use x="1608.96875" xlink:href="#DejaVuSans-68"/>
       <use x="1672.347656" xlink:href="#DejaVuSans-61"/>
       <use x="1733.626953" xlink:href="#DejaVuSans-6e"/>
       <use x="1797.005859" xlink:href="#DejaVuSans-67"/>
       <use x="1860.482422" xlink:href="#DejaVuSans-65"/>
      </g>
     </g>
    </g>
    <g id="text_34">
     <!-- The most valuable design skills for the future will be (answer optional): -->
     <defs>
      <path d="M -0.296875 72.90625 
L 61.375 72.90625 
L 61.375 64.59375 
L 35.5 64.59375 
L 35.5 0 
L 25.59375 0 
L 25.59375 64.59375 
L -0.296875 64.59375 
z
" id="DejaVuSans-54"/>
      <path d="M 4.203125 54.6875 
L 13.1875 54.6875 
L 24.421875 12.015625 
L 35.59375 54.6875 
L 46.1875 54.6875 
L 57.421875 12.015625 
L 68.609375 54.6875 
L 77.59375 54.6875 
L 63.28125 0 
L 52.6875 0 
L 40.921875 44.828125 
L 29.109375 0 
L 18.5 0 
z
" id="DejaVuSans-77"/>
      <path d="M 31 75.875 
Q 24.46875 64.65625 21.28125 53.65625 
Q 18.109375 42.671875 18.109375 31.390625 
Q 18.109375 20.125 21.3125 9.0625 
Q 24.515625 -2 31 -13.1875 
L 23.1875 -13.1875 
Q 15.875 -1.703125 12.234375 9.375 
Q 8.59375 20.453125 8.59375 31.390625 
Q 8.59375 42.28125 12.203125 53.3125 
Q 15.828125 64.359375 23.1875 75.875 
z
" id="DejaVuSans-28"/>
      <path d="M 8.015625 75.875 
L 15.828125 75.875 
Q 23.140625 64.359375 26.78125 53.3125 
Q 30.421875 42.28125 30.421875 31.390625 
Q 30.421875 20.453125 26.78125 9.375 
Q 23.140625 -1.703125 15.828125 -13.1875 
L 8.015625 -13.1875 
Q 14.5 -2 17.703125 9.0625 
Q 20.90625 20.125 20.90625 31.390625 
Q 20.90625 42.671875 17.703125 53.65625 
Q 14.5 64.65625 8.015625 75.875 
z
" id="DejaVuSans-29"/>
      <path d="M 11.71875 12.40625 
L 22.015625 12.40625 
L 22.015625 0 
L 11.71875 0 
z
M 11.71875 51.703125 
L 22.015625 51.703125 
L 22.015625 39.3125 
L 11.71875 39.3125 
z
" id="DejaVuSans-3a"/>
     </defs>
     <g transform="translate(32.904609 642.625117)rotate(-90)scale(0.165 -0.165)">
      <use xlink:href="#DejaVuSans-54"/>
      <use x="61.083984" xlink:href="#DejaVuSans-68"/>
      <use x="124.462891" xlink:href="#DejaVuSans-65"/>
      <use x="185.986328" xlink:href="#DejaVuSans-20"/>
      <use x="217.773438" xlink:href="#DejaVuSans-6d"/>
      <use x="315.185547" xlink:href="#DejaVuSans-6f"/>
      <use x="376.367188" xlink:href="#DejaVuSans-73"/>
      <use x="428.466797" xlink:href="#DejaVuSans-74"/>
      <use x="467.675781" xlink:href="#DejaVuSans-20"/>
      <use x="499.462891" xlink:href="#DejaVuSans-76"/>
      <use x="558.642578" xlink:href="#DejaVuSans-61"/>
      <use x="619.921875" xlink:href="#DejaVuSans-6c"/>
      <use x="647.705078" xlink:href="#DejaVuSans-75"/>
      <use x="711.083984" xlink:href="#DejaVuSans-61"/>
      <use x="772.363281" xlink:href="#DejaVuSans-62"/>
      <use x="835.839844" xlink:href="#DejaVuSans-6c"/>
      <use x="863.623047" xlink:href="#DejaVuSans-65"/>
      <use x="925.146484" xlink:href="#DejaVuSans-20"/>
      <use x="956.933594" xlink:href="#DejaVuSans-64"/>
      <use x="1020.410156" xlink:href="#DejaVuSans-65"/>
      <use x="1081.933594" xlink:href="#DejaVuSans-73"/>
      <use x="1134.033203" xlink:href="#DejaVuSans-69"/>
      <use x="1161.816406" xlink:href="#DejaVuSans-67"/>
      <use x="1225.292969" xlink:href="#DejaVuSans-6e"/>
      <use x="1288.671875" xlink:href="#DejaVuSans-20"/>
      <use x="1320.458984" xlink:href="#DejaVuSans-73"/>
      <use x="1372.558594" xlink:href="#DejaVuSans-6b"/>
      <use x="1430.46875" xlink:href="#DejaVuSans-69"/>
      <use x="1458.251953" xlink:href="#DejaVuSans-6c"/>
      <use x="1486.035156" xlink:href="#DejaVuSans-6c"/>
      <use x="1513.818359" xlink:href="#DejaVuSans-73"/>
      <use x="1565.917969" xlink:href="#DejaVuSans-20"/>
      <use x="1597.705078" xlink:href="#DejaVuSans-66"/>
      <use x="1632.910156" xlink:href="#DejaVuSans-6f"/>
      <use x="1694.091797" xlink:href="#DejaVuSans-72"/>
      <use x="1735.205078" xlink:href="#DejaVuSans-20"/>
      <use x="1766.992188" xlink:href="#DejaVuSans-74"/>
      <use x="1806.201172" xlink:href="#DejaVuSans-68"/>
      <use x="1869.580078" xlink:href="#DejaVuSans-65"/>
      <use x="1931.103516" xlink:href="#DejaVuSans-20"/>
      <use x="1962.890625" xlink:href="#DejaVuSans-66"/>
      <use x="1998.095703" xlink:href="#DejaVuSans-75"/>
      <use x="2061.474609" xlink:href="#DejaVuSans-74"/>
      <use x="2100.683594" xlink:href="#DejaVuSans-75"/>
      <use x="2164.0625" xlink:href="#DejaVuSans-72"/>
      <use x="2205.144531" xlink:href="#DejaVuSans-65"/>
      <use x="2266.667969" xlink:href="#DejaVuSans-20"/>
      <use x="2298.455078" xlink:href="#DejaVuSans-77"/>
      <use x="2380.242188" xlink:href="#DejaVuSans-69"/>
      <use x="2408.025391" xlink:href="#DejaVuSans-6c"/>
      <use x="2435.808594" xlink:href="#DejaVuSans-6c"/>
      <use x="2463.591797" xlink:href="#DejaVuSans-20"/>
      <use x="2495.378906" xlink:href="#DejaVuSans-62"/>
      <use x="2558.855469" xlink:href="#DejaVuSans-65"/>
      <use x="2620.378906" xlink:href="#DejaVuSans-20"/>
      <use x="2652.166016" xlink:href="#DejaVuSans-28"/>
      <use x="2691.179688" xlink:href="#DejaVuSans-61"/>
      <use x="2752.458984" xlink:href="#DejaVuSans-6e"/>
      <use x="2815.837891" xlink:href="#DejaVuSans-73"/>
      <use x="2867.9375" xlink:href="#DejaVuSans-77"/>
      <use x="2949.724609" xlink:href="#DejaVuSans-65"/>
      <use x="3011.248047" xlink:href="#DejaVuSans-72"/>
      <use x="3052.361328" xlink:href="#DejaVuSans-20"/>
      <use x="3084.148438" xlink:href="#DejaVuSans-6f"/>
      <use x="3145.330078" xlink:href="#DejaVuSans-70"/>
      <use x="3208.806641" xlink:href="#DejaVuSans-74"/>
      <use x="3248.015625" xlink:href="#DejaVuSans-69"/>
      <use x="3275.798828" xlink:href="#DejaVuSans-6f"/>
      <use x="3336.980469" xlink:href="#DejaVuSans-6e"/>
      <use x="3400.359375" xlink:href="#DejaVuSans-61"/>
      <use x="3461.638672" xlink:href="#DejaVuSans-6c"/>
      <use x="3489.421875" xlink:href="#DejaVuSans-29"/>
      <use x="3528.435547" xlink:href="#DejaVuSans-3a"/>
     </g>
    </g>
   </g>
   <g id="patch_27">
    <path d="M 344.815 656.06 
L 344.815 41.4525 
" style="fill:none;stroke:#000000;stroke-linecap:square;stroke-linejoin:miter;stroke-width:0.8;"/>
   </g>
   <g id="patch_28">
    <path d="M 1031.56 656.06 
L 1031.56 41.4525 
" style="fill:none;stroke:#000000;stroke-linecap:square;stroke-linejoin:miter;stroke-width:0.8;"/>
   </g>
   <g id="patch_29">
    <path d="M 344.815 656.06 
L 1031.56 656.06 
" style="fill:none;stroke:#000000;stroke-linecap:square;stroke-linejoin:miter;stroke-width:0.8;"/>
   </g>
   <g id="patch_30">
    <path d="M 344.815 41.4525 
L 1031.56 41.4525 
" style="fill:none;stroke:#000000;stroke-linecap:square;stroke-linejoin:miter;stroke-width:0.8;"/>
   </g>
   <g id="text_35">
    <!-- 48 (75%) -->
    <defs>
     <path d="M 31.78125 34.625 
Q 24.75 34.625 20.71875 30.859375 
Q 16.703125 27.09375 16.703125 20.515625 
Q 16.703125 13.921875 20.71875 10.15625 
Q 24.75 6.390625 31.78125 6.390625 
Q 38.8125 6.390625 42.859375 10.171875 
Q 46.921875 13.96875 46.921875 20.515625 
Q 46.921875 27.09375 42.890625 30.859375 
Q 38.875 34.625 31.78125 34.625 
z
M 21.921875 38.8125 
Q 15.578125 40.375 12.03125 44.71875 
Q 8.5 49.078125 8.5 55.328125 
Q 8.5 64.0625 14.71875 69.140625 
Q 20.953125 74.21875 31.78125 74.21875 
Q 42.671875 74.21875 48.875 69.140625 
Q 55.078125 64.0625 55.078125 55.328125 
Q 55.078125 49.078125 51.53125 44.71875 
Q 48 40.375 41.703125 38.8125 
Q 48.828125 37.15625 52.796875 32.3125 
Q 56.78125 27.484375 56.78125 20.515625 
Q 56.78125 9.90625 50.3125 4.234375 
Q 43.84375 -1.421875 31.78125 -1.421875 
Q 19.734375 -1.421875 13.25 4.234375 
Q 6.78125 9.90625 6.78125 20.515625 
Q 6.78125 27.484375 10.78125 32.3125 
Q 14.796875 37.15625 21.921875 38.8125 
z
M 18.3125 54.390625 
Q 18.3125 48.734375 21.84375 45.5625 
Q 25.390625 42.390625 31.78125 42.390625 
Q 38.140625 42.390625 41.71875 45.5625 
Q 45.3125 48.734375 45.3125 54.390625 
Q 45.3125 60.0625 41.71875 63.234375 
Q 38.140625 66.40625 31.78125 66.40625 
Q 25.390625 66.40625 21.84375 63.234375 
Q 18.3125 60.0625 18.3125 54.390625 
z
" id="DejaVuSans-38"/>
     <path d="M 72.703125 32.078125 
Q 68.453125 32.078125 66.03125 28.46875 
Q 63.625 24.859375 63.625 18.40625 
Q 63.625 12.0625 66.03125 8.421875 
Q 68.453125 4.78125 72.703125 4.78125 
Q 76.859375 4.78125 79.265625 8.421875 
Q 81.6875 12.0625 81.6875 18.40625 
Q 81.6875 24.8125 79.265625 28.4375 
Q 76.859375 32.078125 72.703125 32.078125 
z
M 72.703125 38.28125 
Q 80.421875 38.28125 84.953125 32.90625 
Q 89.5 27.546875 89.5 18.40625 
Q 89.5 9.28125 84.9375 3.921875 
Q 80.375 -1.421875 72.703125 -1.421875 
Q 64.890625 -1.421875 60.34375 3.921875 
Q 55.8125 9.28125 55.8125 18.40625 
Q 55.8125 27.59375 60.375 32.9375 
Q 64.9375 38.28125 72.703125 38.28125 
z
M 22.3125 68.015625 
Q 18.109375 68.015625 15.6875 64.375 
Q 13.28125 60.75 13.28125 54.390625 
Q 13.28125 47.953125 15.671875 44.328125 
Q 18.0625 40.71875 22.3125 40.71875 
Q 26.5625 40.71875 28.96875 44.328125 
Q 31.390625 47.953125 31.390625 54.390625 
Q 31.390625 60.6875 28.953125 64.34375 
Q 26.515625 68.015625 22.3125 68.015625 
z
M 66.40625 74.21875 
L 74.21875 74.21875 
L 28.609375 -1.421875 
L 20.796875 -1.421875 
z
M 22.3125 74.21875 
Q 30.03125 74.21875 34.609375 68.875 
Q 39.203125 63.53125 39.203125 54.390625 
Q 39.203125 45.171875 34.640625 39.84375 
Q 30.078125 34.515625 22.3125 34.515625 
Q 14.546875 34.515625 10.03125 39.859375 
Q 5.515625 45.21875 5.515625 54.390625 
Q 5.515625 63.484375 10.046875 68.84375 
Q 14.59375 74.21875 22.3125 74.21875 
z
" id="DejaVuSans-25"/>
    </defs>
    <g transform="translate(811.8016 57.568073)scale(0.12 -0.12)">
     <use xlink:href="#DejaVuSans-34"/>
     <use x="63.623047" xlink:href="#DejaVuSans-38"/>
     <use x="127.246094" xlink:href="#DejaVuSans-20"/>
     <use x="159.033203" xlink:href="#DejaVuSans-28"/>
     <use x="198.046875" xlink:href="#DejaVuSans-37"/>
     <use x="261.669922" xlink:href="#DejaVuSans-35"/>
     <use x="325.292969" xlink:href="#DejaVuSans-25"/>
     <use x="420.3125" xlink:href="#DejaVuSans-29"/>
    </g>
   </g>
   <g id="text_36">
    <!-- 36 (56%) -->
    <g transform="translate(697.3441 83.176719)scale(0.12 -0.12)">
     <use xlink:href="#DejaVuSans-33"/>
     <use x="63.623047" xlink:href="#DejaVuSans-36"/>
     <use x="127.246094" xlink:href="#DejaVuSans-20"/>
     <use x="159.033203" xlink:href="#DejaVuSans-28"/>
     <use x="198.046875" xlink:href="#DejaVuSans-35"/>
     <use x="261.669922" xlink:href="#DejaVuSans-36"/>
     <use x="325.292969" xlink:href="#DejaVuSans-25"/>
     <use x="420.3125" xlink:href="#DejaVuSans-29"/>
    </g>
   </g>
   <g id="text_37">
    <!-- 34 (53%) -->
    <g transform="translate(678.26785 108.785365)scale(0.12 -0.12)">
     <use xlink:href="#DejaVuSans-33"/>
     <use x="63.623047" xlink:href="#DejaVuSans-34"/>
     <use x="127.246094" xlink:href="#DejaVuSans-20"/>
     <use x="159.033203" xlink:href="#DejaVuSans-28"/>
     <use x="198.046875" xlink:href="#DejaVuSans-35"/>
     <use x="261.669922" xlink:href="#DejaVuSans-33"/>
     <use x="325.292969" xlink:href="#DejaVuSans-25"/>
     <use x="420.3125" xlink:href="#DejaVuSans-29"/>
    </g>
   </g>
   <g id="text_38">
    <!-- 33 (52%) -->
    <g transform="translate(668.729725 134.39401)scale(0.12 -0.12)">
     <use xlink:href="#DejaVuSans-33"/>
     <use x="63.623047" xlink:href="#DejaVuSans-33"/>
     <use x="127.246094" xlink:href="#DejaVuSans-20"/>
     <use x="159.033203" xlink:href="#DejaVuSans-28"/>
     <use x="198.046875" xlink:href="#DejaVuSans-35"/>
     <use x="261.669922" xlink:href="#DejaVuSans-32"/>
     <use x="325.292969" xlink:href="#DejaVuSans-25"/>
     <use x="420.3125" xlink:href="#DejaVuSans-29"/>
    </g>
   </g>
   <g id="text_39">
    <!-- 30 (47%) -->
    <g transform="translate(640.11535 160.002656)scale(0.12 -0.12)">
     <use xlink:href="#DejaVuSans-33"/>
     <use x="63.623047" xlink:href="#DejaVuSans-30"/>
     <use x="127.246094" xlink:href="#DejaVuSans-20"/>
     <use x="159.033203" xlink:href="#DejaVuSans-28"/>
     <use x="198.046875" xlink:href="#DejaVuSans-34"/>
     <use x="261.669922" xlink:href="#DejaVuSans-37"/>
     <use x="325.292969" xlink:href="#DejaVuSans-25"/>
     <use x="420.3125" xlink:href="#DejaVuSans-29"/>
    </g>
   </g>
   <g id="text_40">
    <!-- 28 (44%) -->
    <g transform="translate(621.0391 185.611302)scale(0.12 -0.12)">
     <use xlink:href="#DejaVuSans-32"/>
     <use x="63.623047" xlink:href="#DejaVuSans-38"/>
     <use x="127.246094" xlink:href="#DejaVuSans-20"/>
     <use x="159.033203" xlink:href="#DejaVuSans-28"/>
     <use x="198.046875" xlink:href="#DejaVuSans-34"/>
     <use x="261.669922" xlink:href="#DejaVuSans-34"/>
     <use x="325.292969" xlink:href="#DejaVuSans-25"/>
     <use x="420.3125" xlink:href="#DejaVuSans-29"/>
    </g>
   </g>
   <g id="text_41">
    <!-- 25 (39%) -->
    <defs>
     <path d="M 10.984375 1.515625 
L 10.984375 10.5 
Q 14.703125 8.734375 18.5 7.8125 
Q 22.3125 6.890625 25.984375 6.890625 
Q 35.75 6.890625 40.890625 13.453125 
Q 46.046875 20.015625 46.78125 33.40625 
Q 43.953125 29.203125 39.59375 26.953125 
Q 35.25 24.703125 29.984375 24.703125 
Q 19.046875 24.703125 12.671875 31.3125 
Q 6.296875 37.9375 6.296875 49.421875 
Q 6.296875 60.640625 12.9375 67.421875 
Q 19.578125 74.21875 30.609375 74.21875 
Q 43.265625 74.21875 49.921875 64.515625 
Q 56.59375 54.828125 56.59375 36.375 
Q 56.59375 19.140625 48.40625 8.859375 
Q 40.234375 -1.421875 26.421875 -1.421875 
Q 22.703125 -1.421875 18.890625 -0.6875 
Q 15.09375 0.046875 10.984375 1.515625 
z
M 30.609375 32.421875 
Q 37.25 32.421875 41.125 36.953125 
Q 45.015625 41.5 45.015625 49.421875 
Q 45.015625 57.28125 41.125 61.84375 
Q 37.25 66.40625 30.609375 66.40625 
Q 23.96875 66.40625 20.09375 61.84375 
Q 16.21875 57.28125 16.21875 49.421875 
Q 16.21875 41.5 20.09375 36.953125 
Q 23.96875 32.421875 30.609375 32.421875 
z
" id="DejaVuSans-39"/>
    </defs>
    <g transform="translate(592.424725 211.219948)scale(0.12 -0.12)">
     <use xlink:href="#DejaVuSans-32"/>
     <use x="63.623047" xlink:href="#DejaVuSans-35"/>
     <use x="127.246094" xlink:href="#DejaVuSans-20"/>
     <use x="159.033203" xlink:href="#DejaVuSans-28"/>
     <use x="198.046875" xlink:href="#DejaVuSans-33"/>
     <use x="261.669922" xlink:href="#DejaVuSans-39"/>
     <use x="325.292969" xlink:href="#DejaVuSans-25"/>
     <use x="420.3125" xlink:href="#DejaVuSans-29"/>
    </g>
   </g>
   <g id="text_42">
    <!-- 25 (39%) -->
    <g transform="translate(592.424725 236.828594)scale(0.12 -0.12)">
     <use xlink:href="#DejaVuSans-32"/>
     <use x="63.623047" xlink:href="#DejaVuSans-35"/>
     <use x="127.246094" xlink:href="#DejaVuSans-20"/>
     <use x="159.033203" xlink:href="#DejaVuSans-28"/>
     <use x="198.046875" xlink:href="#DejaVuSans-33"/>
     <use x="261.669922" xlink:href="#DejaVuSans-39"/>
     <use x="325.292969" xlink:href="#DejaVuSans-25"/>
     <use x="420.3125" xlink:href="#DejaVuSans-29"/>
    </g>
   </g>
   <g id="text_43">
    <!-- 24 (38%) -->
    <g transform="translate(582.8866 262.43724)scale(0.12 -0.12)">
     <use xlink:href="#DejaVuSans-32"/>
     <use x="63.623047" xlink:href="#DejaVuSans-34"/>
     <use x="127.246094" xlink:href="#DejaVuSans-20"/>
     <use x="159.033203" xlink:href="#DejaVuSans-28"/>
     <use x="198.046875" xlink:href="#DejaVuSans-33"/>
     <use x="261.669922" xlink:href="#DejaVuSans-38"/>
     <use x="325.292969" xlink:href="#DejaVuSans-25"/>
     <use x="420.3125" xlink:href="#DejaVuSans-29"/>
    </g>
   </g>
   <g id="text_44">
    <!-- 24 (38%) -->
    <g transform="translate(582.8866 288.045885)scale(0.12 -0.12)">
     <use xlink:href="#DejaVuSans-32"/>
     <use x="63.623047" xlink:href="#DejaVuSans-34"/>
     <use x="127.246094" xlink:href="#DejaVuSans-20"/>
     <use x="159.033203" xlink:href="#DejaVuSans-28"/>
     <use x="198.046875" xlink:href="#DejaVuSans-33"/>
     <use x="261.669922" xlink:href="#DejaVuSans-38"/>
     <use x="325.292969" xlink:href="#DejaVuSans-25"/>
     <use x="420.3125" xlink:href="#DejaVuSans-29"/>
    </g>
   </g>
   <g id="text_45">
    <!-- 22 (34%) -->
    <g transform="translate(563.81035 313.654531)scale(0.12 -0.12)">
     <use xlink:href="#DejaVuSans-32"/>
     <use x="63.623047" xlink:href="#DejaVuSans-32"/>
     <use x="127.246094" xlink:href="#DejaVuSans-20"/>
     <use x="159.033203" xlink:href="#DejaVuSans-28"/>
     <use x="198.046875" xlink:href="#DejaVuSans-33"/>
     <use x="261.669922" xlink:href="#DejaVuSans-34"/>
     <use x="325.292969" xlink:href="#DejaVuSans-25"/>
     <use x="420.3125" xlink:href="#DejaVuSans-29"/>
    </g>
   </g>
   <g id="text_46">
    <!-- 21 (33%) -->
    <g transform="translate(554.272225 339.263177)scale(0.12 -0.12)">
     <use xlink:href="#DejaVuSans-32"/>
     <use x="63.623047" xlink:href="#DejaVuSans-31"/>
     <use x="127.246094" xlink:href="#DejaVuSans-20"/>
     <use x="159.033203" xlink:href="#DejaVuSans-28"/>
     <use x="198.046875" xlink:href="#DejaVuSans-33"/>
     <use x="261.669922" xlink:href="#DejaVuSans-33"/>
     <use x="325.292969" xlink:href="#DejaVuSans-25"/>
     <use x="420.3125" xlink:href="#DejaVuSans-29"/>
    </g>
   </g>
   <g id="text_47">
    <!-- 21 (33%) -->
    <g transform="translate(554.272225 364.871823)scale(0.12 -0.12)">
     <use xlink:href="#DejaVuSans-32"/>
     <use x="63.623047" xlink:href="#DejaVuSans-31"/>
     <use x="127.246094" xlink:href="#DejaVuSans-20"/>
     <use x="159.033203" xlink:href="#DejaVuSans-28"/>
     <use x="198.046875" xlink:href="#DejaVuSans-33"/>
     <use x="261.669922" xlink:href="#DejaVuSans-33"/>
     <use x="325.292969" xlink:href="#DejaVuSans-25"/>
     <use x="420.3125" xlink:href="#DejaVuSans-29"/>
    </g>
   </g>
   <g id="text_48">
    <!-- 17 (27%) -->
    <g transform="translate(516.119725 390.480469)scale(0.12 -0.12)">
     <use xlink:href="#DejaVuSans-31"/>
     <use x="63.623047" xlink:href="#DejaVuSans-37"/>
     <use x="127.246094" xlink:href="#DejaVuSans-20"/>
     <use x="159.033203" xlink:href="#DejaVuSans-28"/>
     <use x="198.046875" xlink:href="#DejaVuSans-32"/>
     <use x="261.669922" xlink:href="#DejaVuSans-37"/>
     <use x="325.292969" xlink:href="#DejaVuSans-25"/>
     <use x="420.3125" xlink:href="#DejaVuSans-29"/>
    </g>
   </g>
   <g id="text_49">
    <!-- 15 (23%) -->
    <g transform="translate(497.043475 416.089115)scale(0.12 -0.12)">
     <use xlink:href="#DejaVuSans-31"/>
     <use x="63.623047" xlink:href="#DejaVuSans-35"/>
     <use x="127.246094" xlink:href="#DejaVuSans-20"/>
     <use x="159.033203" xlink:href="#DejaVuSans-28"/>
     <use x="198.046875" xlink:href="#DejaVuSans-32"/>
     <use x="261.669922" xlink:href="#DejaVuSans-33"/>
     <use x="325.292969" xlink:href="#DejaVuSans-25"/>
     <use x="420.3125" xlink:href="#DejaVuSans-29"/>
    </g>
   </g>
   <g id="text_50">
    <!-- 13 (20%) -->
    <g transform="translate(477.967225 441.69776)scale(0.12 -0.12)">
     <use xlink:href="#DejaVuSans-31"/>
     <use x="63.623047" xlink:href="#DejaVuSans-33"/>
     <use x="127.246094" xlink:href="#DejaVuSans-20"/>
     <use x="159.033203" xlink:href="#DejaVuSans-28"/>
     <use x="198.046875" xlink:href="#DejaVuSans-32"/>
     <use x="261.669922" xlink:href="#DejaVuSans-30"/>
     <use x="325.292969" xlink:href="#DejaVuSans-25"/>
     <use x="420.3125" xlink:href="#DejaVuSans-29"/>
    </g>
   </g>
   <g id="text_51">
    <!-- 12 (19%) -->
    <g transform="translate(468.4291 467.306406)scale(0.12 -0.12)">
     <use xlink:href="#DejaVuSans-31"/>
     <use x="63.623047" xlink:href="#DejaVuSans-32"/>
     <use x="127.246094" xlink:href="#DejaVuSans-20"/>
     <use x="159.033203" xlink:href="#DejaVuSans-28"/>
     <use x="198.046875" xlink:href="#DejaVuSans-31"/>
     <use x="261.669922" xlink:href="#DejaVuSans-39"/>
     <use x="325.292969" xlink:href="#DejaVuSans-25"/>
     <use x="420.3125" xlink:href="#DejaVuSans-29"/>
    </g>
   </g>
   <g id="text_52">
    <!-- 12 (19%) -->
    <g transform="translate(468.4291 492.915052)scale(0.12 -0.12)">
     <use xlink:href="#DejaVuSans-31"/>
     <use x="63.623047" xlink:href="#DejaVuSans-32"/>
     <use x="127.246094" xlink:href="#DejaVuSans-20"/>
     <use x="159.033203" xlink:href="#DejaVuSans-28"/>
     <use x="198.046875" xlink:href="#DejaVuSans-31"/>
     <use x="261.669922" xlink:href="#DejaVuSans-39"/>
     <use x="325.292969" xlink:href="#DejaVuSans-25"/>
     <use x="420.3125" xlink:href="#DejaVuSans-29"/>
    </g>
   </g>
   <g id="text_53">
    <!-- 11 (17%) -->
    <g transform="translate(458.890975 518.523698)scale(0.12 -0.12)">
     <use xlink:href="#DejaVuSans-31"/>
     <use x="63.623047" xlink:href="#DejaVuSans-31"/>
     <use x="127.246094" xlink:href="#DejaVuSans-20"/>
     <use x="159.033203" xlink:href="#DejaVuSans-28"/>
     <use x="198.046875" xlink:href="#DejaVuSans-31"/>
     <use x="261.669922" xlink:href="#DejaVuSans-37"/>
     <use x="325.292969" xlink:href="#DejaVuSans-25"/>
     <use x="420.3125" xlink:href="#DejaVuSans-29"/>
    </g>
   </g>
   <g id="text_54">
    <!-- 10 (16%) -->
    <g transform="translate(449.35285 544.132344)scale(0.12 -0.12)">
     <use xlink:href="#DejaVuSans-31"/>
     <use x="63.623047" xlink:href="#DejaVuSans-30"/>
     <use x="127.246094" xlink:href="#DejaVuSans-20"/>
     <use x="159.033203" xlink:href="#DejaVuSans-28"/>
     <use x="198.046875" xlink:href="#DejaVuSans-31"/>
     <use x="261.669922" xlink:href="#DejaVuSans-36"/>
     <use x="325.292969" xlink:href="#DejaVuSans-25"/>
     <use x="420.3125" xlink:href="#DejaVuSans-29"/>
    </g>
   </g>
   <g id="text_55">
    <!-- 8 (12%) -->
    <g transform="translate(430.2766 569.74099)scale(0.12 -0.12)">
     <use xlink:href="#DejaVuSans-38"/>
     <use x="63.623047" xlink:href="#DejaVuSans-20"/>
     <use x="95.410156" xlink:href="#DejaVuSans-28"/>
     <use x="134.423828" xlink:href="#DejaVuSans-31"/>
     <use x="198.046875" xlink:href="#DejaVuSans-32"/>
     <use x="261.669922" xlink:href="#DejaVuSans-25"/>
     <use x="356.689453" xlink:href="#DejaVuSans-29"/>
    </g>
   </g>
   <g id="text_56">
    <!-- 6 (9%) -->
    <g transform="translate(411.20035 595.349635)scale(0.12 -0.12)">
     <use xlink:href="#DejaVuSans-36"/>
     <use x="63.623047" xlink:href="#DejaVuSans-20"/>
     <use x="95.410156" xlink:href="#DejaVuSans-28"/>
     <use x="134.423828" xlink:href="#DejaVuSans-39"/>
     <use x="198.046875" xlink:href="#DejaVuSans-25"/>
     <use x="293.066406" xlink:href="#DejaVuSans-29"/>
    </g>
   </g>
   <g id="text_57">
    <!-- 6 (9%) -->
    <g transform="translate(411.20035 620.958281)scale(0.12 -0.12)">
     <use xlink:href="#DejaVuSans-36"/>
     <use x="63.623047" xlink:href="#DejaVuSans-20"/>
     <use x="95.410156" xlink:href="#DejaVuSans-28"/>
     <use x="134.423828" xlink:href="#DejaVuSans-39"/>
     <use x="198.046875" xlink:href="#DejaVuSans-25"/>
     <use x="293.066406" xlink:href="#DejaVuSans-29"/>
    </g>
   </g>
   <g id="text_58">
    <!-- 0 (0%) -->
    <g transform="translate(353.9716 646.566927)scale(0.12 -0.12)">
     <use xlink:href="#DejaVuSans-30"/>
     <use x="63.623047" xlink:href="#DejaVuSans-20"/>
     <use x="95.410156" xlink:href="#DejaVuSans-28"/>
     <use x="134.423828" xlink:href="#DejaVuSans-30"/>
     <use x="198.046875" xlink:href="#DejaVuSans-25"/>
     <use x="293.066406" xlink:href="#DejaVuSans-29"/>
    </g>
   </g>
   <g id="text_59">
    <!-- AIGA-Only_Distribution of "The most valuable design skills for the future will be (answer optional):" -->
    <defs>
     <path d="M 59.515625 10.40625 
L 59.515625 29.984375 
L 43.40625 29.984375 
L 43.40625 38.09375 
L 69.28125 38.09375 
L 69.28125 6.78125 
Q 63.578125 2.734375 56.6875 0.65625 
Q 49.8125 -1.421875 42 -1.421875 
Q 24.90625 -1.421875 15.25 8.5625 
Q 5.609375 18.5625 5.609375 36.375 
Q 5.609375 54.25 15.25 64.234375 
Q 24.90625 74.21875 42 74.21875 
Q 49.125 74.21875 55.546875 72.453125 
Q 61.96875 70.703125 67.390625 67.28125 
L 67.390625 56.78125 
Q 61.921875 61.421875 55.765625 63.765625 
Q 49.609375 66.109375 42.828125 66.109375 
Q 29.4375 66.109375 22.71875 58.640625 
Q 16.015625 51.171875 16.015625 36.375 
Q 16.015625 21.625 22.71875 14.15625 
Q 29.4375 6.6875 42.828125 6.6875 
Q 48.046875 6.6875 52.140625 7.59375 
Q 56.25 8.5 59.515625 10.40625 
z
" id="DejaVuSans-47"/>
     <path d="M 50.984375 -16.609375 
L 50.984375 -23.578125 
L -0.984375 -23.578125 
L -0.984375 -16.609375 
z
" id="DejaVuSans-5f"/>
     <path d="M 17.921875 72.90625 
L 17.921875 45.796875 
L 9.625 45.796875 
L 9.625 72.90625 
z
M 36.375 72.90625 
L 36.375 45.796875 
L 28.078125 45.796875 
L 28.078125 72.90625 
z
" id="DejaVuSans-22"/>
    </defs>
    <g transform="translate(242.119375 35.4525)scale(0.18 -0.18)">
     <use xlink:href="#DejaVuSans-41"/>
     <use x="68.408203" xlink:href="#DejaVuSans-49"/>
     <use x="97.900391" xlink:href="#DejaVuSans-47"/>
     <use x="175.390625" xlink:href="#DejaVuSans-41"/>
     <use x="243.767578" xlink:href="#DejaVuSans-2d"/>
     <use x="279.882812" xlink:href="#DejaVuSans-4f"/>
     <use x="358.59375" xlink:href="#DejaVuSans-6e"/>
     <use x="421.972656" xlink:href="#DejaVuSans-6c"/>
     <use x="449.755859" xlink:href="#DejaVuSans-79"/>
     <use x="508.935547" xlink:href="#DejaVuSans-5f"/>
     <use x="558.935547" xlink:href="#DejaVuSans-44"/>
     <use x="635.9375" xlink:href="#DejaVuSans-69"/>
     <use x="663.720703" xlink:href="#DejaVuSans-73"/>
     <use x="715.820312" xlink:href="#DejaVuSans-74"/>
     <use x="755.029297" xlink:href="#DejaVuSans-72"/>
     <use x="796.142578" xlink:href="#DejaVuSans-69"/>
     <use x="823.925781" xlink:href="#DejaVuSans-62"/>
     <use x="887.402344" xlink:href="#DejaVuSans-75"/>
     <use x="950.78125" xlink:href="#DejaVuSans-74"/>
     <use x="989.990234" xlink:href="#DejaVuSans-69"/>
     <use x="1017.773438" xlink:href="#DejaVuSans-6f"/>
     <use x="1078.955078" xlink:href="#DejaVuSans-6e"/>
     <use x="1142.333984" xlink:href="#DejaVuSans-20"/>
     <use x="1174.121094" xlink:href="#DejaVuSans-6f"/>
     <use x="1235.302734" xlink:href="#DejaVuSans-66"/>
     <use x="1270.507812" xlink:href="#DejaVuSans-20"/>
     <use x="1302.294922" xlink:href="#DejaVuSans-22"/>
     <use x="1348.291016" xlink:href="#DejaVuSans-54"/>
     <use x="1409.375" xlink:href="#DejaVuSans-68"/>
     <use x="1472.753906" xlink:href="#DejaVuSans-65"/>
     <use x="1534.277344" xlink:href="#DejaVuSans-20"/>
     <use x="1566.064453" xlink:href="#DejaVuSans-6d"/>
     <use x="1663.476562" xlink:href="#DejaVuSans-6f"/>
     <use x="1724.658203" xlink:href="#DejaVuSans-73"/>
     <use x="1776.757812" xlink:href="#DejaVuSans-74"/>
     <use x="1815.966797" xlink:href="#DejaVuSans-20"/>
     <use x="1847.753906" xlink:href="#DejaVuSans-76"/>
     <use x="1906.933594" xlink:href="#DejaVuSans-61"/>
     <use x="1968.212891" xlink:href="#DejaVuSans-6c"/>
     <use x="1995.996094" xlink:href="#DejaVuSans-75"/>
     <use x="2059.375" xlink:href="#DejaVuSans-61"/>
     <use x="2120.654297" xlink:href="#DejaVuSans-62"/>
     <use x="2184.130859" xlink:href="#DejaVuSans-6c"/>
     <use x="2211.914062" xlink:href="#DejaVuSans-65"/>
     <use x="2273.4375" xlink:href="#DejaVuSans-20"/>
     <use x="2305.224609" xlink:href="#DejaVuSans-64"/>
     <use x="2368.701172" xlink:href="#DejaVuSans-65"/>
     <use x="2430.224609" xlink:href="#DejaVuSans-73"/>
     <use x="2482.324219" xlink:href="#DejaVuSans-69"/>
     <use x="2510.107422" xlink:href="#DejaVuSans-67"/>
     <use x="2573.583984" xlink:href="#DejaVuSans-6e"/>
     <use x="2636.962891" xlink:href="#DejaVuSans-20"/>
     <use x="2668.75" xlink:href="#DejaVuSans-73"/>
     <use x="2720.849609" xlink:href="#DejaVuSans-6b"/>
     <use x="2778.759766" xlink:href="#DejaVuSans-69"/>
     <use x="2806.542969" xlink:href="#DejaVuSans-6c"/>
     <use x="2834.326172" xlink:href="#DejaVuSans-6c"/>
     <use x="2862.109375" xlink:href="#DejaVuSans-73"/>
     <use x="2914.208984" xlink:href="#DejaVuSans-20"/>
     <use x="2945.996094" xlink:href="#DejaVuSans-66"/>
     <use x="2981.201172" xlink:href="#DejaVuSans-6f"/>
     <use x="3042.382812" xlink:href="#DejaVuSans-72"/>
     <use x="3083.496094" xlink:href="#DejaVuSans-20"/>
     <use x="3115.283203" xlink:href="#DejaVuSans-74"/>
     <use x="3154.492188" xlink:href="#DejaVuSans-68"/>
     <use x="3217.871094" xlink:href="#DejaVuSans-65"/>
     <use x="3279.394531" xlink:href="#DejaVuSans-20"/>
     <use x="3311.181641" xlink:href="#DejaVuSans-66"/>
     <use x="3346.386719" xlink:href="#DejaVuSans-75"/>
     <use x="3409.765625" xlink:href="#DejaVuSans-74"/>
     <use x="3448.974609" xlink:href="#DejaVuSans-75"/>
     <use x="3512.353516" xlink:href="#DejaVuSans-72"/>
     <use x="3553.435547" xlink:href="#DejaVuSans-65"/>
     <use x="3614.958984" xlink:href="#DejaVuSans-20"/>
     <use x="3646.746094" xlink:href="#DejaVuSans-77"/>
     <use x="3728.533203" xlink:href="#DejaVuSans-69"/>
     <use x="3756.316406" xlink:href="#DejaVuSans-6c"/>
     <use x="3784.099609" xlink:href="#DejaVuSans-6c"/>
     <use x="3811.882812" xlink:href="#DejaVuSans-20"/>
     <use x="3843.669922" xlink:href="#DejaVuSans-62"/>
     <use x="3907.146484" xlink:href="#DejaVuSans-65"/>
     <use x="3968.669922" xlink:href="#DejaVuSans-20"/>
     <use x="4000.457031" xlink:href="#DejaVuSans-28"/>
     <use x="4039.470703" xlink:href="#DejaVuSans-61"/>
     <use x="4100.75" xlink:href="#DejaVuSans-6e"/>
     <use x="4164.128906" xlink:href="#DejaVuSans-73"/>
     <use x="4216.228516" xlink:href="#DejaVuSans-77"/>
     <use x="4298.015625" xlink:href="#DejaVuSans-65"/>
     <use x="4359.539062" xlink:href="#DejaVuSans-72"/>
     <use x="4400.652344" xlink:href="#DejaVuSans-20"/>
     <use x="4432.439453" xlink:href="#DejaVuSans-6f"/>
     <use x="4493.621094" xlink:href="#DejaVuSans-70"/>
     <use x="4557.097656" xlink:href="#DejaVuSans-74"/>
     <use x="4596.306641" xlink:href="#DejaVuSans-69"/>
     <use x="4624.089844" xlink:href="#DejaVuSans-6f"/>
     <use x="4685.271484" xlink:href="#DejaVuSans-6e"/>
     <use x="4748.650391" xlink:href="#DejaVuSans-61"/>
     <use x="4809.929688" xlink:href="#DejaVuSans-6c"/>
     <use x="4837.712891" xlink:href="#DejaVuSans-29"/>
     <use x="4876.726562" xlink:href="#DejaVuSans-3a"/>
     <use x="4910.417969" xlink:href="#DejaVuSans-22"/>
    </g>
   </g>
  </g>
 </g>
 <defs>
  <clipPath id="p0bf7ad99fb">
   <rect height="614.6075" width="686.745" x="344.815" y="41.4525"/>
  </clipPath>
 </defs>
</svg>
